<?xml version="1.0" standalone="no"?>
<!DOCTYPE svg PUBLIC "-//W3C//DTD SVG 1.1//EN" "http://www.w3.org/Graphics/SVG/1.1/DTD/svg11.dtd" >
<svg xmlns="http://www.w3.org/2000/svg">
<metadata>
Created by FontForge 20120731 at Mon Jun 26 14:32:44 2017
 By admin
</metadata>
<defs>
<font id="xiu-ico" horiz-adv-x="1024" >
  <font-face 
    font-family="xiu-ico"
    font-weight="500"
    font-stretch="normal"
    units-per-em="1024"
    panose-1="2 0 6 3 0 0 0 0 0 0"
    ascent="896"
    descent="-128"
    x-height="792"
    bbox="44 -31 956 792"
    underline-thickness="0"
    underline-position="0"
    unicode-range="U+0078-E659"
  />
<missing-glyph 
 />
    <glyph glyph-name=".notdef" 
 />
    <glyph glyph-name=".notdef" 
 />
    <glyph glyph-name=".null" horiz-adv-x="0" 
 />
    <glyph glyph-name="nonmarkingreturn" horiz-adv-x="341" 
 />
    <glyph glyph-name="x" unicode="x" horiz-adv-x="1001" 
d="M281 543q-27 -1 -53 -1h-83q-18 0 -36.5 -6t-32.5 -18.5t-23 -32t-9 -45.5v-76h912v41q0 16 -0.5 30t-0.5 18q0 13 -5 29t-17 29.5t-31.5 22.5t-49.5 9h-133v-97h-438v97zM955 310v-52q0 -23 0.5 -52t0.5 -58t-10.5 -47.5t-26 -30t-33 -16t-31.5 -4.5q-14 -1 -29.5 -0.5
t-29.5 0.5h-32l-45 128h-439l-44 -128h-29h-34q-20 0 -45 1q-25 0 -41 9.5t-25.5 23t-13.5 29.5t-4 30v167h911zM163 247q-12 0 -21 -8.5t-9 -21.5t9 -21.5t21 -8.5q13 0 22 8.5t9 21.5t-9 21.5t-22 8.5zM316 123q-8 -26 -14 -48q-5 -19 -10.5 -37t-7.5 -25t-3 -15t1 -14.5
t9.5 -10.5t21.5 -4h37h67h81h80h64h36q23 0 34 12t2 38q-5 13 -9.5 30.5t-9.5 34.5q-5 19 -11 39h-368zM336 498v228q0 11 2.5 23t10 21.5t20.5 15.5t34 6h188q31 0 51.5 -14.5t20.5 -52.5v-227h-327z" />
    <glyph glyph-name="arr-down" unicode="&#xe626;" 
d="M834 550q-6 6 -14.5 6t-14.5 -6l-291 -291l-295 294q-6 6 -14.5 6t-14.5 -6t-6 -14.5t6 -14.5l306 -306l2 -1q6 -8 16 -8q8 0 14 6l306 306q6 6 6 14.5t-6 14.5z" />
    <glyph glyph-name="arr-right" unicode="&#xe627;" 
d="M681 397l-2 1q0 1 -1 2l-306 306q-6 6 -14.5 6t-14.5 -6t-6 -14.5t6 -14.5l294 -295l-291 -291q-6 -6 -6 -14.5t6 -14.5t14.5 -6t14.5 6l306 306q6 6 6 14.5t-6 14.5z" />
    <glyph glyph-name="baidu" unicode="&#xe628;" 
d="M577 241h-27q-9 1 -11 8v66h-27v-74q0 -2 1 -5.5t8 -10.5t18 -10h67v100h-29v-74zM471 318h-31q-14 -2 -26 -13t-16 -25q-1 -6 -1 -12q0 -15 6 -27q5 -9 15.5 -16.5t20.5 -9.5h59v141h-27v-38zM471 238h-24q-7 1 -13 6.5t-8 13.5q-1 4 -1 8q0 7 3 14q5 12 18 16h25v-58z
M512 742q-97 0 -179.5 -48t-130.5 -130.5t-48 -179.5t48 -179.5t130.5 -130.5t179.5 -48t179.5 48t130.5 130.5t48 179.5t-48 179.5t-130.5 130.5t-179.5 48zM532 523q3 20 21 40.5t35 16.5q17 -6 29 -22.5t12 -34.5v-6q-4 -24 -20 -42.5t-39 -15.5q-44 5 -38 64v0zM463 590
q19 0 32 -18.5t13 -45t-13.5 -45t-31.5 -18.5t-31.5 18.5t-13.5 45t13.5 45t31.5 18.5v0zM323 439q1 2 1.5 6t3.5 13t7 16t12 13.5t18 7.5q20 2 35 -14.5t17 -32.5q8 -66 -37 -75q-30 -7 -45.5 18t-11.5 48zM665 213q-7 -16 -21.5 -24.5t-29 -10t-31 0.5t-23 3.5t-9.5 2.5v0
q-20 6 -41 6q-15 0 -31 -4q-27 -5 -54 -5h-18q-46 3 -57 56q-3 18 -0.5 31t11 25t15.5 18.5t14.5 12t8.5 6.5t10.5 9.5t22 21.5t20.5 27q11 17 30 27t44 3.5t44 -35.5q35 -47 81 -83q16 -12 21 -19t5 -24t-12 -45zM658 345q-18 0 -29 5t-15.5 15t-6 18t-1.5 20q0 62 45 62
q26 0 38 -18t12 -33l0.5 -5.5t0 -8.5t-1 -9.5t-1.5 -10.5t-3 -10t-5.5 -9.5t-8 -7.5t-11 -6t-13.5 -2z" />
    <glyph glyph-name="ball" unicode="&#xe629;" 
d="M512 773h-1q-24 0 -47 -3q-109 -13 -205.5 -98t-123.5 -191q-12 -48 -12 -97q0 -106 52 -195.5t141.5 -141.5t195.5 -52q14 0 21 1q4 0 11 0.5t10 0.5q127 14 227.5 113.5t116.5 225.5q3 24 3 47v1q0 106 -52 195.5t-141.5 141.5t-195.5 52zM860 384v-7q-92 4 -172.5 53
t-129.5 129.5t-53 172.5h7v0q95 0 175 -46.5t126.5 -126.5t46.5 -175zM164 384q0 17 1 25q0 5 1 8l2 18l1 5q95 -6 175.5 -57.5t128 -135.5t47.5 -179q0 -22 -2 -32h-6q-95 0 -175 46.5t-126.5 126.5t-46.5 175zM756 136q-34 -34 -91.5 -62t-104.5 -35q1 16 1 29
q0 104 -51.5 196.5t-140 150t-192.5 65.5q27 90 111 163t176 86q5 -102 59.5 -190.5t143 -143t190.5 -59.5q-7 -49 -36.5 -107.5t-64.5 -92.5z" />
    <glyph glyph-name="arr-left" unicode="&#xe62a;" 
d="M387 382l294 295q6 6 6 14.5t-6 14.5t-14.5 6t-14.5 -6l-306 -306q0 -1 -1 -2l-2 -1q-6 -6 -6 -14.5t6 -14.5l306 -306q6 -6 14.5 -6t14.5 6t6 14.5t-6 14.5z" />
    <glyph glyph-name="arr-up" unicode="&#xe62b;" 
d="M834 247l-306 306q-6 6 -14.5 6t-14.5 -6q-1 -1 -1 -2l-2 -1l-306 -306q-6 -6 -6 -14.5t6 -14.5t14.5 -6t14.5 6l295 294l291 -291q6 -6 14.5 -6t14.5 6t6 14.5t-6 14.5v0z" />
    <glyph glyph-name="clock" unicode="&#xe62c;" 
d="M512 763q-103 0 -190 -51t-138 -138t-51 -190t51 -190t138 -138t190 -51t190 51t138 138t51 190t-51 190t-138 138t-190 51zM512 46q-92 0 -169.5 45.5t-123 123t-45.5 169.5t45.5 169.5t123 123t169.5 45.5t169.5 -45.5t123 -123t45.5 -169.5t-45.5 -169.5t-123 -123
t-169.5 -45.5zM532 393v190q0 9 -6 15t-14 6t-14 -6t-6 -15v-199q0 -11 9 -17l137 -138q6 -6 14.5 -6t14.5 6t6 14.5t-6 14.5z" />
    <glyph glyph-name="emotion" unicode="&#xe62d;" 
d="M226 569zM185 569q0 -17 12 -29t29 -12t29 12t12 29t-12 29t-29 12t-29 -12t-12 -29zM838.5 462q-8.5 0 -14.5 6l-87 87q-6 6 -6 14t6 14l87 88q6 6 14.5 6t14.5 -6t6 -14.5t-6 -14.5l-73 -73l73 -72q6 -6 6 -14.5t-6 -14.5t-14.5 -6zM512 91q-113 0 -199.5 68.5
t-106.5 173.5v4q0 8 6 14t14 6q7 0 13 -4.5t7 -11.5q17 -91 92.5 -150t173.5 -59t173.5 59t92.5 150q5 14 20 14q8 0 14 -6t6 -14v-2q-20 -105 -106.5 -173.5t-199.5 -68.5z" />
    <glyph glyph-name="fans" unicode="&#xe62e;" 
d="M743 530v1q0 96 -67.5 164t-163.5 68t-164 -68t-68 -164q0 -48 28 -103t67 -83q-85 -34 -154 -121t-82 -176v-6q0 -13 9 -23.5t22 -11.5h2.5h2.5q13 0 23.5 9t11.5 21q16 108 104.5 185t197.5 77h2q95 1 162 68.5t67 162.5zM512 690q66 -1 112 -47.5t46 -112.5
t-46.5 -112.5t-112.5 -46.5t-112.5 46.5t-46.5 112.5t47 113t113 47v0zM707 216q-17 41 -52 51.5t-63 -13.5t-28 -71q0 -16 4.5 -28.5t16 -23.5t18.5 -16.5t24.5 -16t20.5 -12.5q23 -15 40 -33.5t20 -29.5q2 10 19.5 29t39.5 34q6 5 21 14t23.5 15.5t19 16.5t15.5 23t5 28
q-1 47 -29 70.5t-63 13t-52 -50.5z" />
    <glyph glyph-name="fullscreen" unicode="&#xe62f;" 
d="M406 702h-100q-46 0 -79 -33t-33 -79v-100q0 -15 10.5 -25.5t25.5 -10.5t25.5 10.5t10.5 25.5v100q0 16 12 28t28 12h100q15 0 25.5 10.5t10.5 25.5t-10.5 25.5t-25.5 10.5v0zM794 314v0q-14 0 -24.5 -10.5t-10.5 -25.5v-100q0 -16 -12 -28t-29 -12h-100
q-15 0 -25.5 -10.5t-10.5 -25.5t10.5 -25.5t25.5 -10.5h99q47 0 80 33t33 79v100v0q0 15 -10.5 25.5t-25.5 10.5zM410 283q-10 10 -25 10t-26 -10l-68 -69l-67 67q-4 4 -9.5 4t-9.5 -4t-4 -9v-1v-127q0 -29 20.5 -50t50.5 -21h127h1q5 0 9 4t4 10t-4 10l-67 66l68 69
q11 10 11 25t-11 26zM614 485q10 -10 25 -10t25 10l69 69l66 -67q4 -4 10 -4t10 4t4 9v1v127q0 29 -21 50t-50 21h-127h-1q-5 0 -9 -4t-4 -10t4 -10l67 -67l-68 -68q-11 -11 -11 -25.5t11 -25.5z" />
    <glyph glyph-name="home" unicode="&#xe630;" 
d="M934 434l-168 135v112q0 8 -6 14t-14.5 6t-14.5 -6t-6 -14v-79l-150 121q-11 10 -29.5 17t-33.5 7t-33.5 -7t-30.5 -17l-358 -289q-8 -6 -8 -16q0 -8 6 -14t14 -6t13 4l59 47v-362q0 -27 19.5 -46.5t46.5 -19.5h138v0q28 0 47.5 19.5t19.5 46.5v183v0q0 7 7 7v0h128v0
q7 0 7 -7v-183q0 -27 19.5 -46.5t47.5 -19.5h138v0q27 0 46.5 19.5t19.5 46.5v356l51 -41q6 -5 13 -5q9 0 15 6.5t6 14.5q0 10 -8 16h-1zM817 87v0q0 -11 -7.5 -18.5t-17.5 -7.5v0h-138v0q-11 0 -18.5 7.5t-7.5 18.5v0v183q0 20 -14 34t-34 14h-128v0q-20 0 -34 -14t-14 -34
v-183q0 -10 -7.5 -17.5t-18.5 -7.5v0h-137h-1q-10 0 -17.5 7.5t-7.5 17.5v395l260 209l1 1q15 15 36 15t36 -15l269 -216v-389z" />
    <glyph glyph-name="clear" unicode="&#xe631;" 
d="M840 626h-224v52v0q0 26 -18.5 44.5t-44.5 19.5h-73q-26 -1 -44.5 -19.5t-18.5 -44.5v0v-51h-233q-8 0 -14 -6t-6 -14.5t6 -14.5t14 -6h74v-421v0q0 -57 40 -97.5t97 -41.5h234q57 1 97 41.5t40 97.5v0v421h74q8 0 14 6t6 14t-6 14t-14 6zM458 678v0q0 9 6.5 15.5
t15.5 6.5h73q9 0 15.5 -6.5t6.5 -15.5v0v-52h-117v52zM725 165v-1q0 -39 -28 -67.5t-68 -29.5h-234q-40 1 -68 29.5t-28 67.5v1v421h426v-421zM426 187v0q9 0 15 6t6 15v218q0 9 -6 15t-14.5 6t-14.5 -6t-6 -15v-218q0 -9 6 -15t14 -6zM598 187v0q8 0 14 6t6 15v218
q0 9 -6 15t-14.5 6t-14.5 -6t-6 -15v-218q0 -9 6 -15t15 -6z" />
    <glyph glyph-name="locked" unicode="&#xe632;" 
d="M512 451q-59 0 -101 -42t-42 -101.5t42 -101.5t101 -42t101 42t42 101.5t-42 101.5t-101 42zM512 205v0q-42 0 -72 30t-30 72.5t30 72.5t72 30t72 -30t30 -72.5t-30 -72.5t-72 -30zM696 546v63q0 64 -47 109t-114 45h-46q-67 0 -114 -45t-47 -109v-63q-49 -38 -83.5 -108
t-34.5 -131q0 -125 88.5 -214t213.5 -89t213.5 89t88.5 214q0 61 -34.5 131t-83.5 108v0zM369 609q0 46 35 79.5t85 33.5h46q50 0 85 -33t35 -80v-36q-27 15 -69 25.5t-74 10.5t-74 -10.5t-69 -25.5v36zM512 46q-108 0 -184.5 76.5t-76.5 184.5t76.5 184.5t184.5 76.5
t184.5 -76.5t76.5 -184.5t-76.5 -184.5t-184.5 -76.5z" />
    <glyph glyph-name="join" unicode="&#xe633;" 
d="M761 530v1q0 96 -68 164t-164 68t-163.5 -68t-67.5 -164q0 -48 27.5 -103t66.5 -83q-84 -34 -153 -121t-82 -176q-1 -3 -1 -6q0 -13 9 -23.5t22 -11.5h3h2q13 0 23.5 9t12.5 21q16 108 104.5 185t197.5 77h1q95 1 162.5 68.5t67.5 162.5zM529 690q66 -1 112.5 -47.5
t46.5 -112.5t-46.5 -112.5t-112.5 -46.5t-113 46.5t-47 112.5q1 66 47.5 113t112.5 47v0zM832 195h-83v83q0 14 -10 24t-24.5 10t-24.5 -10t-10 -24v-83h-83q-14 0 -24 -10t-10 -24.5t10 -24.5t24 -10h83v-84q0 -14 10 -24t24.5 -10t24.5 10t10 24v84h84q14 0 24 10t10 24.5
t-10 24.5t-24 10h-1z" />
    <glyph glyph-name="logout" unicode="&#xe634;" 
d="M512 23v0q-97 0 -180 48t-131 130.5t-48 180.5q0 87 54 178.5t130 133.5q5 3 10 3q9 0 15 -6t6 -14q0 -12 -11 -18q-67 -38 -114.5 -119t-47.5 -158q0 -132 93 -225t224.5 -93t224.5 93t93 225q0 80 -50.5 162.5t-120.5 118.5q-11 6 -11 18q0 9 6 15t14 6q5 0 9 -2
q80 -42 137 -135t57 -183q0 -98 -48 -180.5t-130.5 -130.5t-180.5 -48v0zM512 350v0q-8 0 -14 6t-6 15v353q0 9 6 15t14 6t14 -6t6 -15v-353q0 -9 -6 -15t-14 -6z" />
    <glyph glyph-name="loud" unicode="&#xe635;" 
d="M790 264q-4 -1 -15 5t-26.5 20.5t-33 34t-36 49t-33.5 61.5q-23 52 -33 106t-8 84t8 33q7 3 30 -18t55.5 -66.5t56 -97.5t34 -103t9 -78t-7.5 -30zM812.5 502q-49.5 110 -117.5 182t-108 56q-18 -7 -26.5 -23t-13.5 -37.5t-12 -48.5t-27.5 -59.5t-55 -66t-100.5 -71.5
t-157 -74q-28 -11 -37 -47.5t4 -63.5q13 -29 46.5 -48t61.5 -9l31 11q12 -15 26.5 -20t25.5 -6.5t15 -10.5l48 -106q7 -16 20.5 -26.5t24.5 -6.5l85 30q8 3 14 10.5t6 15.5q0 6 -3 11q-3 7 -19.5 17t-20.5 18q-34 74 -39 86q-7 17 5.5 29.5t35.5 14.5q47 5 88.5 0t67 -15.5
t50 -23t39 -23t33 -14t32.5 2.5q41 16 34 111t-56.5 205z" />
    <glyph glyph-name="liked" unicode="&#xe636;" 
d="M705 717q-99 7 -183 -101q-104 121 -214 98q-83 -18 -130.5 -83t-44.5 -158q1 -35 13.5 -71t26.5 -61.5t38 -55.5t36.5 -43.5t33.5 -34.5q64 -63 130.5 -110t105.5 -47h2q20 1 61 21t92 59t98 88.5t81 118.5t39 139q7 105 -42.5 169.5t-142.5 71.5zM733 240
q-59 -62 -125.5 -105.5t-90.5 -43.5t-81.5 39.5t-124.5 106.5q-26 25 -42 43t-41 51t-38.5 69.5t-15.5 74.5q-3 91 49 146.5t121 55.5q27 0 51.5 -10t46.5 -29.5t34 -32.5t30 -35q6 -7 16 -7h1q10 0 16 8q16 22 28 35.5t33.5 33.5t47 29t54.5 7q71 -5 109.5 -51.5
t39.5 -111.5t-29.5 -139.5t-88.5 -133.5z" />
    <glyph glyph-name="mic" unicode="&#xe637;" 
d="M512 307q69 0 118 49t50 118v99q0 69 -49.5 118t-118.5 49t-118.5 -49t-49.5 -118v-99q1 -69 50 -118t118 -49zM416 573q0 39 28 67.5t68 28.5t68 -28.5t28 -67.5v-99q0 -40 -28 -68t-68 -28t-68 28t-28 68v99zM763 369q-7 4 -15 4q-10 0 -19.5 -6t-13.5 -15
q-25 -55 -72 -87t-102 -32h-58q-55 0 -102 32t-73 87q-4 9 -13.5 15t-18.5 6q-15 0 -25.5 -10.5t-10.5 -25.5q0 -8 4 -16q33 -72 95.5 -115t136.5 -45v-62h-63q-15 0 -25.5 -10.5t-10.5 -25t10.5 -25t25.5 -10.5h198q15 0 25.5 10.5t10.5 25t-10.5 25t-25.5 10.5h-63v62
q74 2 136 45t96 116q4 7 4 15q0 9 -6 18.5t-15 13.5z" />
    <glyph glyph-name="nomic" unicode="&#xe638;" 
d="M840 196l-84 83q14 20 25 43q9 20 -3 36t-32.5 15.5t-29.5 -21.5q-5 -11 -12 -21l-52 51q9 13 14.5 26t8.5 22.5t4 29t1.5 28.5t0 39.5t-0.5 45.5q0 48 -23.5 86.5t-60 57.5t-77.5 23t-81.5 -16.5t-66.5 -60.5l-63 62q-11 10 -25.5 10t-25 -10.5t-10.5 -25.5t10 -25
l88 -88q-1 -9 -1 -112q1 -69 50 -118t118 -49q20 0 46 7.5t42 17.5l57 -56q-13 -11 -25 -18.5t-26.5 -12t-23.5 -7.5t-25.5 -4t-23 -1.5t-26.5 0t-25 0.5q-55 0 -101.5 32t-72.5 87q-4 8 -13.5 14t-19.5 6q-14 0 -24.5 -10.5t-10.5 -25.5q0 -8 3 -15q34 -73 96 -115.5
t137 -44.5v-62h-63q-13 0 -22.5 -7t-11.5 -18t0 -21.5t11.5 -17.5t22.5 -7h198q17 0 26.5 11t9.5 24.5t-9.5 24.5t-26.5 11h-63v62q38 2 85 20.5t75 43.5l80 -80q11 -10 26 -10t25.5 10.5t10.5 25.5t-11 26zM608 573v-35v-28v-20.5t-0.5 -16.5t-1 -11.5t-1.5 -10t-2 -7.5
t-4 -9l-175 175q11 28 34 43t48 15t48.5 -9.5t38.5 -32.5t15 -53zM416 474v42l132 -131q-17 -7 -36 -7q-40 0 -68 28t-28 68z" />
    <glyph glyph-name="mute" unicode="&#xe639;" 
d="M575 708q-16 9 -34 9q-21 0 -38 -11l-221 -139h-81v0q-46 0 -78.5 -32.5t-32.5 -78.5v-144q0 -46 32.5 -78.5t78.5 -32.5h81l221 -139q17 -10 38 -10q29 0 50 20.5t21 50.5v522v0q0 18 -10.5 36t-26.5 27zM320 261q-18 11 -38 11h-81q-16 0 -27.5 11.5t-11.5 27.5v145
q0 17 11.5 28.5t27.5 11.5h81q21 0 38 11l220 138l1 -522zM840 398l84 83q10 11 10 26t-10.5 25.5t-25.5 10.5t-26 -11l-83 -83l-82 83q-11 11 -26 11t-25.5 -10.5t-10.5 -25.5t10 -26l84 -83l-84 -83q-10 -11 -10 -25.5t10.5 -25t25.5 -10.5t26 10l83 84l83 -84
q11 -10 26 -10t25.5 10.5t10.5 25t-11 25.5z" />
    <glyph glyph-name="notice" unicode="&#xe63a;" 
d="M642.5 500h-0.5q-8 0 -14 5.5t-7 13.5q0 32 -25.5 54.5t-61.5 22.5h-3q-7 0 -12.5 5.5t-5.5 13.5t5.5 13t12.5 5h3q53 0 91 -33.5t38 -80.5q0 -8 -6 -13.5t-14 -5.5h-0.5zM512 159l-125 1q-14 0 -23 12q-7 11 -7 24q0 7 2 14l2 12v33q-54 41 -92.5 103.5t-38.5 125.5
q0 117 82.5 199.5t199.5 82.5t199.5 -82.5t82.5 -199.5q0 -63 -38.5 -125.5t-92.5 -103.5v-33l2 -12q2 -7 2 -13q0 -14 -8 -25t-23 -12h-1zM401 202l111 -1l111 1v2q-2 9 -2 18v54l9 7q49 35 85 91.5t36 109.5q0 99 -70 169t-169 70t-169 -70t-70 -169q0 -53 36 -109.5
t85 -91.5l9 -7v-54q0 -9 -2 -18v-2zM670 81h-316q-9 0 -15 6.5t-6 15t6 14.5t15 6h316q9 0 15 -6t6 -14.5t-6 -15t-15 -6.5zM596 4h-168q-9 0 -15 6t-6 15t6 15t15 6h168q9 0 15 -6t6 -15t-6 -15t-15 -6z" />
    <glyph glyph-name="off" unicode="&#xe63b;" 
d="M540 384l279 304q6 6 6 13q0 9 -6.5 15t-14.5 6q-9 0 -16 -7l-276 -300l-276 300q-7 7 -16 7q-8 0 -14.5 -6t-6.5 -15q0 -7 6 -13l279 -304l-279 -304q-6 -6 -6 -13q0 -9 6.5 -15t14.5 -6q9 0 16 7l276 300l276 -301q7 -7 16 -7q8 0 14.5 6.5t6.5 14.5t-6 14z" />
    <glyph glyph-name="nospeak" unicode="&#xe63c;" 
d="M794 577v46v0q0 17 -10 37t-24 30q-23 18 -52 18q-12 0 -24 -4l-358 -111q-1 1 -2 1q-24 6 -47 6h-2q-80 0 -136 -56t-56 -136t56 -136.5t136 -56.5q11 0 22 2l40 -111q4 -13 19 -13q3 0 7 1q13 5 13 19q0 4 -1 7l-36 98l79 -24q3 -1 6 -1h1q8 0 14 6t6 14q0 15 -14 20
l-75 23v303l339 106q7 2 13 2q15 0 28 -9q17 -13 17 -35v0v-191q0 -9 6 -15t14.5 -6t14.5 6t6 15v103q44 -8 75 -45.5t32 -81.5v-1q0 -22 -12 -49.5t-28 -42.5q-6 -6 -6 -15t6 -15t14 -6q9 0 15 6q21 21 36 56.5t15 65.5v1q0 61 -43 110.5t-104 58.5zM124 408q0 63 44 107
t107 44h2q18 0 36 -4h2v-294h-2q-18 -5 -36 -5h-2q-63 0 -107 44.5t-44 107.5zM654 408q-29 0 -65 -14.5t-57 -35.5l-1 -1l-1 -1q-18 -20 -31 -54t-13 -61q0 -72 51 -123t124 -51q27 0 61 12.5t54 31.5l1 1l1 1q21 21 35.5 56.5t14.5 65.5q0 72 -51 123t-123 51v-1zM787 234
q0 -18 -7.5 -41t-18.5 -37l-185 186q14 10 37 17.5t41 7.5q55 0 94 -39t39 -94zM521 234q0 18 7.5 41t18.5 37l186 -185q-15 -11 -38 -18.5t-41 -7.5q-55 0 -94 39t-39 94z" />
    <glyph glyph-name="nowifi" unicode="&#xe63d;" 
d="M113 424q-14 0 -24.5 10.5t-10.5 24.5q0 9 4 17q57 107 183 182.5t248 75.5q120 0 246 -75t183 -181q4 -8 4 -17q0 -15 -10.5 -25.5t-24.5 -10.5q-9 0 -18.5 5.5t-13.5 13.5q-49 91 -156.5 155t-210.5 64t-211 -64.5t-156 -156.5q-4 -7 -13.5 -12.5t-18.5 -5.5zM226 305
q-15 0 -25.5 10.5t-10.5 24.5q0 7 3 14q36 89 129.5 151.5t189.5 62.5h1q82 0 157 -40.5t133 -116.5q7 -9 7 -21q0 -15 -10.5 -25.5t-24.5 -10.5q-18 0 -29 14q-48 62 -108 95.5t-125 33.5h-1q-76 0 -150 -50t-103 -120q-4 -10 -13.5 -16t-19.5 -6v0zM352 209v0
q-15 0 -25.5 10.5t-10.5 25.5q0 5 1 10q18 60 75 103t120 43q32 0 71 -15t63 -36q12 -10 12 -26q0 -15 -10.5 -25.5t-25.5 -10.5q-13 0 -23 9q-16 13 -41 23t-46 10q-41 0 -77.5 -28t-48.5 -67q-3 -11 -13 -18.5t-21 -7.5zM512 200q25 0 43 -18t18 -43.5t-18 -43.5t-43 -18
t-43 18t-18 43.5t18 43.5t43 18zM758 292v0q-47 0 -80 -33t-33 -79.5t33 -79.5t79.5 -33t79.5 33t33 79.5t-33 79.5t-79 33zM822 115q-6 -6 -14.5 -6t-14.5 6l-35 35l-36 -35q-6 -6 -14.5 -6t-14.5 6t-6 14.5t6 14.5l36 35l-36 36q-6 6 -6 14.5t6 14.5t14.5 6t14.5 -6
l36 -36l35 36q6 6 14.5 6t14.5 -6t6 -14.5t-6 -14.5l-35 -36l35 -35q6 -6 6 -14.5t-6 -14.5z" />
    <glyph glyph-name="pause" unicode="&#xe63e;" 
d="M366 92v0q-15 0 -25.5 10.5t-10.5 25.5v512q0 15 10.5 25.5t25.5 10.5t25.5 -10.5t10.5 -25.5v-512q0 -15 -10.5 -25.5t-25.5 -10.5zM658 92v0q-15 0 -25.5 10.5t-10.5 25.5v512q0 15 10.5 25.5t25.5 10.5t25.5 -10.5t10.5 -25.5v-512q0 -15 -10.5 -25.5t-25.5 -10.5z
" />
    <glyph glyph-name="online" unicode="&#xe63f;" 
d="M638 219q65 33 110.5 107t45.5 146q0 118 -83.5 201.5t-200.5 83.5q-118 0 -201 -83t-84 -201q1 -73 48 -147.5t113 -106.5l-78 -179q-1 -4 -1 -8q0 -9 6 -15t14 -6q14 0 19 13l78 180q43 -14 88 -14t88 14l79 -180q5 -13 19 -13q8 0 14 6t6 15q0 4 -1 8zM266 473v3
q0 102 72 174t174 72t174 -72t72 -174q0 -68 -45 -134.5t-108 -92.5h-2q-44 -18 -91 -19h-1q-101 0 -172.5 71.5t-72.5 171.5zM661 445v5q0 8 -6 14t-14 6q-7 0 -13 -4.5t-7 -11.5q-9 -41 -39.5 -67t-69.5 -26t-69.5 26t-39.5 67q-1 7 -7 11.5t-13 4.5q-8 0 -14 -6t-6 -14
v-5q12 -55 53.5 -89.5t95.5 -34.5t95.5 34.5t53.5 89.5z" />
    <glyph glyph-name="play" unicode="&#xe640;" 
d="M271 12q-39 0 -66 27.5t-27 66.5v556v0q0 39 27 66.5t66 27.5q25 0 46 -13l483 -278q19 -11 32.5 -35t13.5 -46t-13.5 -46t-32.5 -35l-483 -278q-21 -13 -46 -13zM271 684q-6 0 -11 -3q-10 -6 -10 -18v-1v-556q0 -9 6.5 -15.5t14.5 -6.5q6 0 11 3l482 278q11 7 11 19
t-11 19l-482 278q-5 3 -11 3v0z" />
    <glyph glyph-name="phone" unicode="&#xe641;" 
d="M512 139zM471 139q0 -17 12 -29t29 -12t29 12t12 29t-12 29t-29 12t-29 -12t-12 -29zM684 746h-354q-38 0 -64.5 -27t-27.5 -64v-532q1 -37 27.5 -64t64.5 -27h354q38 0 64.5 27t26.5 64v532q0 37 -26.5 64t-64.5 27zM330 705h354v0q21 0 35.5 -14.5t14.5 -35.5v-30h-455
v30q0 21 15 35.5t36 14.5zM279 584h455v-345h-455v345zM684 73h-354v0q-21 0 -36 15t-15 35v75h455v-75q0 -20 -14.5 -35t-35.5 -15v0z" />
    <glyph glyph-name="qq" unicode="&#xe642;" 
d="M512 742q-97 0 -179.5 -48t-130.5 -130.5t-48 -179.5t48 -179.5t130.5 -130.5t179.5 -48t179.5 48t130.5 130.5t48 179.5t-48 179.5t-130.5 130.5t-179.5 48zM671 297q-12 -32 -32 -59q-4 -5 1 -9t13 -7t14.5 -11t5.5 -19q0 -1 -0.5 -3.5t-4.5 -9t-11.5 -11t-24 -8
t-39.5 -2.5q-56 4 -74 28h-14q-8 -10 -26.5 -17.5t-33.5 -8.5l-15 -2q-23 -1 -39.5 2.5t-23.5 8.5t-11.5 10.5t-4.5 8.5l-1 4q-1 15 7.5 26.5t17.5 15.5l10 4q-20 27 -33 59q-10 -17 -18 -25.5t-13 -9t-8 4t-4.5 10.5t-1.5 14.5v11.5v5v0q4 22 18.5 48.5t30.5 42.5
q-3 22 1 37t9 18l5 4q1 32 9.5 57.5t20 41t27.5 26.5t28.5 16t27.5 8t19.5 3h8.5h8.5t19.5 -3t27.5 -8t28.5 -16t27.5 -26.5t19.5 -41t9 -57.5q2 -1 5.5 -3.5t8 -17.5t1.5 -38q16 -15 30.5 -42t19.5 -49q2 -10 2.5 -20.5t-1.5 -19.5t-7 -11.5t-15.5 7t-24.5 33.5z" />
    <glyph glyph-name="ques-" unicode="&#xe643;" 
d="M512 701q131 0 224 -93t93 -224t-93 -224t-224 -93t-224 93t-93 224t93 224t224 93zM512 742q-97 0 -179.5 -48t-130.5 -130.5t-48 -179.5t48 -179.5t130.5 -130.5t179.5 -48t179.5 48t130.5 130.5t48 179.5t-48 179.5t-130.5 130.5t-179.5 48zM493 268v80v4q0 14 8.5 28
t20.5 20l50 33q12 9 22 26.5t12 32.5v8q0 12 -6 26.5t-14 23.5q-12 11 -33 19.5t-38 8.5h-2v0q-11 0 -23 -3q-26 -5 -43 -18t-24 -31t-8.5 -30.5t-1.5 -29.5h-46q1 42 9.5 66.5t31.5 49.5q16 17 44 29.5t51 12.5h5q21 -1 41 -5q39 -8 73.5 -42.5t34.5 -84.5q0 -28 -13 -50.5
t-25 -32t-31 -20.5l-1 -1l-7 -4q-41 -27 -41 -68v-48h-46zM516 168zM492 168q0 -10 7 -17t17 -7t17 7t7 17t-7 17.5t-17 7.5t-17 -7.5t-7 -17.5z" />
    <glyph glyph-name="ques-1" unicode="&#xe644;" 
d="M512 742q-97 0 -179.5 -48t-130.5 -130.5t-48 -179.5t48 -179.5t130.5 -130.5t179.5 -48t179.5 48t130.5 130.5t48 179.5t-48 179.5t-130.5 130.5t-179.5 48zM516 144q-10 0 -17 7t-7 17t7 17.5t17 7.5t17 -7t7 -17v0q0 -10 -7 -17.5t-17 -7.5zM588 389l-2 -1l-7 -4
q-41 -27 -41 -68v-48h-45v81v3q0 14 8.5 28t20.5 20l50 34q12 8 22 25.5t12 32.5v8q0 12 -6 26.5t-14 23.5q-12 11 -33 19.5t-38 8.5h-2v0q-11 0 -23 -3q-26 -5 -43 -17.5t-24 -31t-8.5 -31t-1.5 -29.5h-46q1 42 9.5 66.5t31.5 49.5q16 17 44 29.5t51 12.5h5q21 -1 41 -5
q39 -8 73.5 -42.5t34.5 -84.5q0 -28 -13 -50.5t-25 -32t-31 -20.5v0z" />
    <glyph glyph-name="rankcup" unicode="&#xe645;" 
d="M859.5 702q-17.5 18 -47.5 30.5t-55 12.5h-492q-25 0 -54.5 -12.5t-46.5 -31t-29 -48.5t-12 -55v0v-2q0 -59 41.5 -102t100.5 -44h5v-37q0 -71 52.5 -121t126.5 -50h41v-1v-1v-177h-118q-8 0 -14 -6t-6 -14t6 -14t14 -6h278q8 0 14 6t6 14t-6 14t-14 6h-119v177v1v1h41
q74 0 126.5 50t52.5 121v37h6q60 1 102 44t42 102v2q0 25 -12 55.5t-29.5 48.5zM265 491q-42 1 -71.5 31.5t-29.5 72.5v3v0q0 18 8.5 40t21.5 35q12 13 33 22t39 9h5v-213h-6zM711 413q0 -54 -40.5 -92t-97.5 -38h-123q-57 0 -97.5 38t-40.5 92v292h399v-292zM757 491h-5
v214h5q18 -1 39 -10t34 -21q13 -13 22 -35.5t9 -40.5v-2q0 -43 -30.5 -73.5t-73.5 -31.5v0z" />
    <glyph glyph-name="refresh" unicode="&#xe646;" 
d="M877 278l-46 12q13 46 13 94q0 90 -44.5 167t-121 121.5t-166.5 44.5q-33 0 -66 -7q-7 -1 -11.5 -7t-4.5 -13q0 -8 6 -14t15 -6h3q29 6 58 6q121 0 206.5 -85.5t85.5 -206.5q0 -43 -13 -84l-50 12q-5 2 -10 2q-12 0 -21 -9t-9 -21q0 -4 1 -7l38 -125q4 -9 13 -15.5
t19 -6.5q12 0 22 8l98 91q9 8 9 20q0 10 -7 18.5t-17 10.5zM576 99q-32 -7 -65 -7q-120 0 -205.5 85.5t-85.5 205.5q0 34 8 66l45 -11q4 -2 9 -2q13 0 21.5 9t8.5 21q0 4 -1 7l-38 126q-3 9 -12 15.5t-19 6.5q-13 0 -22 -8l-98 -91q-9 -8 -9 -21q0 -10 7 -18t17 -10l51 -13
q-8 -38 -8 -76q0 -90 44.5 -166.5t121 -121t166.5 -44.5q37 0 73 7q7 2 12 8t5 13q0 8 -6 14t-15 6q-3 0 -5 -1z" />
    <glyph glyph-name="qzone" unicode="&#xe647;" 
d="M641 433h-239l158 -27l-170 -138h257l-152 33zM512 742q-97 0 -179.5 -48t-130.5 -130.5t-48 -179.5t48 -179.5t130.5 -130.5t179.5 -48t179.5 48t130.5 130.5t48 179.5t-48 179.5t-130.5 130.5t-179.5 48zM740 419l-87 -75l29 -187q-6 -6 -12 -6l-152 94l-152 -94
q-9 0 -11 1t-2 5l20 187l-92 82l-33 23v3h183l23 41l59 123h11l65 -123l23 -41h158h3t2.5 -0.5t0.5 -3.5z" />
    <glyph glyph-name="resting" unicode="&#xe648;" 
d="M451 571v0q14 0 24.5 10.5t10.5 25.5v133q0 15 -10.5 25.5t-25 10.5t-25 -10.5t-10.5 -25.5v-133q0 -15 10.5 -25.5t25.5 -10.5zM321 593v0q15 0 25.5 10.5t10.5 25.5v80q0 14 -10.5 24.5t-25.5 10.5t-25.5 -10.5t-10.5 -24.5v-80q0 -15 10.5 -25.5t25.5 -10.5zM579 593
v0q15 0 25.5 10.5t10.5 25.5v80q0 14 -10.5 24.5t-25.5 10.5t-25.5 -10.5t-10.5 -24.5v-80q0 -15 10.5 -25.5t25.5 -10.5zM651 535h-395q-15 0 -25.5 -10.5t-10.5 -24.5v-175v0q0 -86 61 -147t147 -61h44q60 0 117 40t78 96q58 5 97.5 45.5t39.5 95.5q0 58 -45 99.5
t-108 41.5zM472 189h-44q-56 0 -96 40t-40 96v139h317v-139q-1 -56 -40.5 -96t-96.5 -40zM680 328v131q21 -6 36 -25t16 -40q-1 -22 -16 -41t-36 -25zM657 74h-378q-8 0 -17 -5t-14 -13q-13 -11 -13 -28q0 -15 10.5 -25.5t25.5 -10.5h377q8 1 17 6t14 13q13 10 13 28
q0 14 -10.5 24.5t-25.5 10.5h1z" />
    <glyph glyph-name="search" unicode="&#xe649;" 
d="M815 130l-88 89q28 35 48.5 90.5t20.5 100.5q0 124 -88 212t-212 88t-211.5 -88t-87.5 -212t87.5 -212t211.5 -88q39 0 89 16t82 38l90 -92q12 -13 30 -13q17 0 29 12t12 29q0 18 -13 30v0zM279.5 409.5q-0.5 89.5 63.5 153t153.5 63.5t153 -63.5t63.5 -153t-63.5 -153.5
t-153.5 -64v0q-89 1 -152.5 64.5t-64 153z" />
    <glyph glyph-name="share" unicode="&#xe64a;" 
d="M780 258q-30 0 -61 -19t-44 -45l-292 131q12 15 20 39.5t8 43.5q0 31 -13 59l239 123q11 -13 32 -22.5t38 -9.5q39 0 66.5 27.5t27.5 66.5t-27.5 66.5t-66.5 27.5t-66.5 -27.5t-27.5 -66.5q0 -13 4 -26l-241 -124q-18 20 -49.5 34.5t-58.5 14.5q-59 0 -100.5 -42
t-41.5 -101t41.5 -100.5t100.5 -41.5q20 0 44.5 8t39.5 20l311 -140q-1 -7 -1 -14q0 -48 34.5 -82.5t83.5 -34.5t83.5 34.5t34.5 83t-34.5 83t-83.5 34.5v0v0zM706.5 704q21.5 0 37 -15t15.5 -37t-15.5 -37.5t-37 -15.5t-37 15.5t-15.5 37.5t15.5 37t37 15zM268 307
q-42 0 -71.5 29.5t-29.5 71.5t29.5 72t71.5 30t72 -30t30 -71.5t-30 -71.5t-72 -30v0zM780 64v0q-32 0 -54.5 22.5t-22.5 54t22.5 54t54.5 22.5t54.5 -22.5t22.5 -54t-22.5 -54t-54.5 -22.5z" />
    <glyph glyph-name="rocket" unicode="&#xe64b;" 
d="M864 675q-4 -102 -46.5 -202t-119.5 -170q-5 -4 -5 -12v-2l4.5 -43.5t0 -34.5t-2 -27.5t-10 -22.5t-15.5 -20.5t-25.5 -21t-33.5 -24t-47 -29.5l-33 -22q-10 -7 -22 -7q-15 0 -26 10.5t-12 24.5q-4 38 -6 82q-2 29 -4 34.5t-11 6.5h-5q-28 3 -58.5 22t-44.5 43
q-20 32 -20 59q0 10 -6.5 12t-43.5 4q-39 3 -69 5q-15 1 -25 12t-10 26q0 12 6 21q3 4 37 57.5t36 55.5q9 15 20 26t25 16.5t24 9t27 3.5t24.5 -0.5t27 -3t24.5 -2.5q1 -1 2 -1q5 0 9 4q36 40 84 72.5t94 50.5t93 30t82.5 12.5t61.5 -1.5q10 -2 12 -4t4 -12q3 -16 3 -33v-5
v1zM709 499v3q0 32 -22.5 54.5t-54.5 22.5t-54.5 -22.5t-22.5 -54.5v-3q-1 -23 12.5 -42t33 -28t43.5 -6t42 21q10 10 16.5 26t6.5 29v0zM206 181q8 25 27 37.5t40 11t39.5 -11t27.5 -30.5t3 -46q-3 -16 -17 -31t-30 -20l-136 -45z" />
    <glyph glyph-name="setting-" unicode="&#xe64c;" 
d="M833 456q-3 0 -11 -0.5t-11 -0.5t-8.5 1t-8.5 3t-6 5t-5 8q-4 14 -10 27.5t-8.5 17t-0.5 11t7 13t19 19.5t14 33.5t-14 33.5l-35 35q-14 13 -33.5 13t-33.5 -13q-15 -16 -18.5 -19.5t-11.5 -6.5t-11 0t-17.5 8.5t-29.5 10.5q-5 2 -8 5t-5 5.5t-2.5 8.5t-1 9t0 11t0.5 11
v0q0 20 -14 34t-34 14h-48q-20 -1 -34 -14.5t-14 -33.5q0 -3 0.5 -11t0 -11t-1 -9t-2.5 -8.5t-5 -5.5t-8 -5q-15 -4 -28.5 -10t-16.5 -8.5t-10.5 -0.5t-13 7t-19.5 19t-33.5 14t-33.5 -14l-35 -35q-13 -14 -13 -33.5t13 -33.5q2 -2 8 -7.5t8 -7.5t5.5 -7t4 -8t0.5 -7.5
t-2 -9.5q-7 -13 -12.5 -26.5t-6.5 -18t-7 -8.5t-13.5 -4h-27.5t-33.5 -14t-14.5 -34v-48q1 -20 14.5 -34t33.5 -14q3 0 11 0.5t11 0t8.5 -1t8.5 -2.5t6 -5t5 -8q4 -14 10 -27.5t8.5 -17t0.5 -11t-7 -13t-19 -19.5t-14 -33.5t14 -33.5l35 -35q14 -14 33.5 -14t33.5 14
q2 2 7.5 8t8 8t7 5.5t7.5 4.5t7.5 0.5t9.5 -2.5q13 -7 27 -12.5t18 -6t8 -7t4 -14v-27.5v0q0 -20 14 -34t34 -14h48q20 1 34 14.5t14 33.5q0 3 -0.5 11t0 11t1 8.5t2.5 8.5t5 6t8 5q15 4 28.5 10t16.5 8.5t10.5 0.5t13 -7t19.5 -19t33.5 -14t33.5 14l35 35q14 14 14 33.5
t-14 33.5q-2 2 -8 7.5t-8 8t-5.5 7t-4.5 7.5t-0.5 7.5t2.5 9.5q7 13 12.5 27t6.5 18t7.5 8t13.5 4h27v0q20 0 34 14t14 34v48q-1 20 -14.5 34t-33.5 14zM512 241q-59 0 -101 42t-42 101t42 101t101 42t101 -42t42 -101t-42 -101t-101 -42z" />
    <glyph glyph-name="setting-1" unicode="&#xe64d;" 
d="M553 13h-61q-34 0 -58 24t-24 58v13q-38 15 -70 40l-10 -6q-19 -11 -41 -11q-20 0 -41 12t-31 29l-31 53q-11 20 -11 42q0 19 12.5 40t29.5 31l10 6q-3 20 -3 40.5t3 40.5l-10 6q-17 10 -29.5 31t-12.5 40q0 22 11 42l31 53q10 17 31 29t41 12q22 0 41 -11l10 -6
q32 25 69 39v13q0 34 24 58t58 24h61q34 0 58 -24t24 -58v-13q38 -15 70 -40l10 6q19 11 41 11q20 0 41 -12t31 -29l30 -53q11 -20 11 -42q0 -19 -12 -40t-29 -31l-10 -6q3 -20 3 -40.5t-3 -40.5l10 -6q17 -10 29 -31t12 -40q0 -22 -11 -42l-30 -53q-10 -17 -31 -29t-41 -12
q-22 0 -41 11l-10 6q-32 -24 -68 -39v-13v0q0 -34 -24.5 -58t-58.5 -24v0zM343 197l11 -10q37 -31 82 -47l14 -5v-40q0 -17 12 -29t29 -12h61q17 0 29 12t12 29v40l14 5q45 16 82 47l11 10l35 -21q10 -5 21 -5q10 0 20.5 6t15.5 15l30 53q7 10 7 22q0 9 -6 19.5t-14 15.5
l-35 21l2 14q5 23 5 47t-5 47l-3 14l36 21q9 5 15 15.5t6 20.5q0 11 -6 21l-31 53q-5 9 -15.5 15t-20.5 6q-11 0 -20 -6l-36 -20l-11 9q-36 32 -82 48l-13 4v41q0 17 -12 29t-29 12h-62q-17 0 -29 -12t-12 -29v-41l-14 -4q-45 -16 -82 -48l-11 -9l-35 20q-10 6 -21 6
q-10 0 -20.5 -6t-15.5 -15l-31 -53q-6 -10 -6 -22q0 -9 6 -19.5t15 -15.5l35 -21l-3 -14q-4 -23 -4 -47t4 -47l3 -14l-35 -21q-9 -5 -15 -15.5t-6 -20.5q0 -11 5 -21l31 -53q5 -9 15.5 -15t20.5 -6q11 0 21 6zM522.5 247q-56.5 0 -96.5 40t-40 97t40 97t96.5 40t96.5 -40
t40 -97t-40 -97t-96.5 -40zM522 480q-39 0 -67.5 -28t-28.5 -68t28.5 -68t68 -28t67.5 28t28 68t-28 68t-68 28v0z" />
    <glyph glyph-name="send" unicode="&#xe64e;" 
d="M859 654q-11 18 -33.5 31t-43.5 13v0h-2l-539 -31q-22 0 -44.5 -14t-33.5 -33q-9 -18 -9 -38q0 -19 11.5 -39.5t27.5 -30.5l168 -108q18 -11 19 -31l22 -229q1 -22 17.5 -43t37.5 -28q13 -4 26 -4q22 0 44.5 13t33.5 31l296 451l1 1q13 21 13 45t-12 44zM215 547
q-8 5 -14 15t-6 20t4 18q6 11 18.5 18.5t24.5 7.5v0h1l539 31q14 0 26 -8l-413 -219q-5 5 -12 10zM823 586l-297 -450v-1q-6 -10 -18.5 -17t-24.5 -7q-7 0 -14 2q-10 3 -18 13.5t-9 21.5l-21 229q-1 9 -4 18l412 220q1 -2 1 -4q0 -13 -7 -25v0z" />
    <glyph glyph-name="square" unicode="&#xe64f;" 
d="M330 732q48 0 81.5 -33.5t33.5 -81.5v-51q0 -48 -33.5 -81.5t-81.5 -33.5h-51q-48 0 -81.5 33.5t-33.5 81.5v51q0 48 33.5 81.5t81.5 33.5h51zM330 773h-51v0q-65 0 -110.5 -45.5t-45.5 -110.5v-51q0 -65 45.5 -110.5t110.5 -45.5h51v0q65 0 110.5 45.5t45.5 110.5v51v0
q0 65 -45.5 110.5t-110.5 45.5zM745 732q48 0 81.5 -33.5t33.5 -81.5v-51q0 -48 -33.5 -81.5t-81.5 -33.5h-51q-48 0 -81.5 33.5t-33.5 81.5v51q0 48 33.5 81.5t81.5 33.5h51zM745 773h-51v0q-65 0 -110.5 -45.5t-45.5 -110.5v-51q0 -65 45.5 -110.5t110.5 -45.5h51v0
q65 0 110.5 45.5t45.5 110.5v51v0q0 65 -45.5 110.5t-110.5 45.5zM330 317q48 0 81.5 -33.5t33.5 -81.5v-51q0 -48 -33.5 -81.5t-81.5 -33.5h-51q-48 0 -81.5 33.5t-33.5 81.5v51q0 48 33.5 81.5t81.5 33.5h51zM330 358h-51v0q-65 0 -110.5 -45.5t-45.5 -110.5v-51
q0 -65 45.5 -110.5t110.5 -45.5h51v0q65 0 110.5 45.5t45.5 110.5v51q0 65 -45.5 110.5t-110.5 45.5zM745 317q48 0 81.5 -33.5t33.5 -81.5v-51q0 -48 -33.5 -81.5t-81.5 -33.5h-51q-48 0 -81.5 33.5t-33.5 81.5v51q0 48 33.5 81.5t81.5 33.5h51zM745 358h-51v0
q-65 0 -110.5 -45.5t-45.5 -110.5v-51q0 -65 45.5 -110.5t110.5 -45.5h51v0q65 0 110.5 45.5t45.5 110.5v51q0 65 -45.5 110.5t-110.5 45.5z" />
    <glyph glyph-name="speak" unicode="&#xe650;" 
d="M941 391.5q0 61.5 -43 111t-104 58.5v45v1q0 17 -10 37t-24 30q-23 17 -52 17q-12 0 -24 -3l-358 -111q-1 0 -2 1q-24 6 -47 6h-2q-80 0 -136 -56.5t-56 -136t56 -136t136 -56.5q11 0 22 1l40 -110q5 -13 19 -13v0q3 0 7 1q13 5 13 19q0 4 -1 7l-36 98l345 -107
q12 -3 24 -3v0q29 0 52 17q14 10 24 30t10 37v1v45q61 9 104 58.5t43 111zM123 391q1 63 45 107.5t107 44.5h2q18 0 36 -5h2v-293h-2q-18 -5 -36 -5h-2q-62 1 -106.5 45t-45.5 106zM753 176v0q0 -21 -17 -34q-12 -10 -28 -10q-6 0 -12 2l-340 106v303l340 106q6 1 12 1
q16 0 28 -9q17 -13 17 -35v0v-430zM794 264v256q45 -8 76.5 -45.5t31.5 -83t-31.5 -83t-76.5 -44.5z" />
    <glyph glyph-name="sinaweibo" unicode="&#xe651;" 
d="M428 274q-11 -1 -18.5 4t-7.5 14q1 10 8 17t17 8q12 1 19.5 -4.5t7.5 -14.5q-2 -9 -9.5 -16t-16.5 -8zM473 311q-3 -2 -7 -2t-7 3q-1 3 -1 6q0 5 5 8q2 3 6 3q5 0 8 -4q1 -2 1 -4q0 -6 -5 -10zM462 404q-57 -3 -96.5 -29.5t-39.5 -62.5q0 -37 40 -61t96 -22
q56 3 96.5 32.5t40.5 66.5q0 36 -39.5 57t-97.5 19zM513 280q-11 -13 -31 -22t-37 -9q-24 0 -45 12q-8 4 -14 13.5t-7 19.5v4.5v7.5t0.5 8.5t1.5 9.5t3.5 10t5.5 10t8.5 9t12 8.5t16 6t20.5 3.5q26 3 45 -6.5t25.5 -24.5t5.5 -32t-9 -28h-1zM512 742q-97 0 -179.5 -48
t-130.5 -130.5t-48 -179.5t48 -179.5t130.5 -130.5t179.5 -48t179.5 48t130.5 130.5t48 179.5t-48 179.5t-130.5 130.5t-179.5 48zM666 295q-22 -45 -85 -69.5t-125 -20.5q-163 13 -174 114q-1 5 -1 12.5t8.5 31t25.5 45.5q6 8 17 21t42.5 39.5t60.5 35.5q71 24 71 -36
q-4 -14 -3 -20t18 -1q2 1 6.5 3t17 5.5t23 5t23 -1t19.5 -9.5q9 -9 10 -21t-3 -20l-3 -7q-9 -10 9 -13q8 -2 18.5 -7.5t21.5 -17t12 -28t-9 -41.5zM604 473h-1q-5 0 -8.5 3.5t-3.5 8.5t3.5 8.5t8.5 3.5h1v0q4 1 8 1t14 -0.5t18 -4.5t16 -10.5t11.5 -20t1.5 -32.5v-0.5v-0.5
q-2 -10 -13 -10q-5 0 -8.5 3.5t-3.5 8.5l0.5 6t0.5 10.5t-2 11.5t-7 10t-13.5 5.5t-22.5 -1.5zM735 408q-2 -15 -17 -15h-2q-6 0 -11 5t-5 11q0 9 3 17q4 11 4 23q0 19 -9 36q-12 18 -35.5 30.5t-45.5 12.5q-4 0 -9 -1q-8 -2 -16 -3h-1q-7 0 -12.5 5t-5.5 12q0 14 14 17
l0.5 0.5l0.5 0.5q17 3 33 3q15 0 30 -2q19 -5 37 -15t34 -29t19.5 -45t-6.5 -63z" />
    <glyph glyph-name="tecentweibo" unicode="&#xe652;" 
d="M512 742q-97 0 -179.5 -48t-130.5 -130.5t-48 -179.5t48 -179.5t130.5 -130.5t179.5 -48t179.5 48t130.5 130.5t48 179.5t-48 179.5t-130.5 130.5t-179.5 48zM288 159v-1q0 -4 -3 -7.5t-8 -3.5h-1h-1h-1q-10 0 -11 10q-12 130 54 227q15 21 32 40q-3 9 -3 18v0v1
q0 19 13.5 33t33 14t33.5 -14t14 -33.5t-14 -33.5t-33 -14q-15 0 -27 9q-15 -17 -28 -35q-21 -33 -36 -83.5t-15 -88.5q0 -19 2 -37zM390 297v0q-16 0 -32 4q-9 2 -9 12v3q2 10 12 10q2 0 3 -1q13 -2 25 -2h1q49 0 83 34t34 82.5t-34 82.5t-82.5 34t-83 -34t-34.5 -82v-1v0
q0 -28 13 -53q1 -3 1 -6q0 -5 -3.5 -9t-8.5 -4q-8 0 -12 7q-15 31 -15 66q0 58 41.5 100t100.5 42t100.5 -42t41.5 -100.5t-41.5 -100.5t-100.5 -42v0zM655 462h-2q-19 0 -35 8q-19 9 -32.5 30.5t-13.5 42.5q0 34 23.5 57.5t57 23.5t57 -23.5t23.5 -57.5q0 -18 -8 -34
q-4 -9 -9 -16q-3 -3 -6 -3q-8 0 -8 7q0 3 2 5q5 6 8 13q7 13 7 28q0 28 -19.5 47t-47 19t-47 -19t-19.5 -47q0 -17 11 -34.5t27 -25.5q13 -6 28 -6h3q7 0 7 -7.5t-7 -7.5v0zM767 409q-28 9 -58.5 33.5t-45.5 49.5q-7 13 -12 26q-6 1 -10 3q-16 7 -16 24q0 11 8 19t19 8
t19 -8t8 -19q0 -15 -14 -23q5 -12 11 -23q14 -23 42 -45.5t53 -31.5q5 -1 5 -6q0 -2 -1 -3v-1q-2 -4 -6 -4q-1 0 -3 1h1z" />
    <glyph glyph-name="unfullscreen" unicode="&#xe653;" 
d="M406 702v0q-15 0 -25.5 -10.5t-10.5 -24.5v-100q0 -17 -12 -29t-29 -12h-99q-15 0 -25.5 -10.5t-10.5 -25.5t10.5 -25.5t25.5 -10.5h99q47 0 80 33t33 80v100v0q0 14 -10.5 24.5t-25.5 10.5zM794 314h-99q-47 0 -80 -33t-33 -80v-99q0 -15 10.5 -25.5t25.5 -10.5
t25.5 10.5t10.5 25.5v99q0 17 12 29t29 12h99q15 0 25.5 10.5t10.5 25.5t-10.5 25.5t-25.5 10.5v0zM391.5 264.5q-8.5 8.5 -23 14.5t-26.5 6v0h-127v0q-6 0 -10 -4t-4 -10t4 -10l67 -67l-68 -68q-11 -10 -11 -25t10.5 -25.5t25.5 -10.5t25 11l69 68l66 -67q4 -4 9.5 -4
t9.5 4t4 10v1v126v1q0 12 -6 26.5t-14.5 23zM632.5 503.5q8.5 -8.5 23 -14.5t26.5 -6v0h127v0q6 0 10 4t4 10t-4 10l-67 67l68 68q11 10 11 25t-10.5 25.5t-25.5 10.5t-25 -10l-69 -69l-66 67q-4 4 -9.5 4t-9.5 -4t-4 -10v-1v-126v-1q0 -12 6 -26.5t14.5 -23z" />
    <glyph glyph-name="shop" unicode="&#xe654;" 
d="M891 465q0 23 -10 45l-1 2v1l-2 4l-74 157q-13 26 -43.5 44.5t-60.5 18.5h-3h-371h-3q-30 0 -60 -18.5t-44 -44.5l-74 -158v-2v-1q-1 -2 -2 -3v-1q-9 -21 -10 -44v-5q3 -32 25.5 -62.5t51.5 -42.5v-222q0 -42 32.5 -72t78.5 -30h382q46 0 78.5 30t32.5 72v222
q35 16 56 45.5t21 64.5zM773 133q0 -25 -20.5 -43t-49.5 -18h-382q-29 0 -49.5 18t-20.5 43v211q11 -2 22 -2h3q30 0 63.5 17t51.5 41q18 -25 53 -43t65 -18h3h3q30 0 64.5 17.5t52.5 42.5q18 -23 52 -40t64 -17h3q11 0 22 2v-211zM751 383q-39 0 -68.5 23t-30.5 55v4
q0 8 -6 14t-14.5 6t-14.5 -6t-6 -14v-4q0 -33 -29 -57t-70 -24t-70 23.5t-29 57.5v4q0 8 -6 14t-14.5 6t-14.5 -6t-6 -14v-4q-2 -32 -31 -55t-68 -23t-68.5 23t-30.5 55v4q0 14 6 27v2l1 1q1 1 2 4l73 158q9 16 28.5 27.5t38.5 11.5h3h371h3q19 0 38.5 -11.5t28.5 -27.5
l74 -159q1 -1 1 -2v-1l1 -2q7 -13 7 -28q0 -34 -29 -58t-70 -24zM691 584h-358q-9 0 -15 -6t-6 -14.5t6 -14.5t15 -6h358q9 0 15 6t6 14.5t-6 14.5t-15 6z" />
    <glyph glyph-name="user" unicode="&#xe655;" 
d="M839 45q-14 104 -76.5 183t-153.5 110q50 25 84.5 81.5t34.5 111.5q0 90 -63.5 153t-153 63t-152.5 -63t-63 -153q0 -55 34.5 -111.5t83.5 -81.5q-90 -31 -152.5 -110t-76.5 -183v-4q0 -8 6 -13.5t14 -5.5q7 0 13 5t6 13q15 115 93.5 193t183.5 82h5h5h11q105 -4 184 -82
t94 -193q0 -7 6 -12t13 -5v0h3q7 1 12 6.5t5 12.5v3zM337 530v1q0 72 51 123.5t124 51.5t124 -51.5t51 -124t-51 -123.5t-124 -51v0q-73 0 -124 51t-51 123v0z" />
    <glyph glyph-name="warning" unicode="&#xe656;" 
d="M512 211zM480 211q0 -13 9.5 -22.5t22.5 -9.5t22.5 9.5t9.5 22.5t-9.5 22.5t-22.5 9.5t-22.5 -9.5t-9.5 -22.5zM512 742q-97 0 -179.5 -48t-130.5 -130.5t-48 -179.5t48 -179.5t130.5 -130.5t179.5 -48t179.5 48t130.5 130.5t48 179.5t-48 179.5t-130.5 130.5t-179.5 48z
M512 67q-131 0 -224 93t-93 224t93 224t224 93t224 -93t93 -224t-93 -224t-224 -93zM512 282v0q8 0 14 6t6 14v287q0 8 -6 14t-14 6t-14 -6t-6 -14v-287q0 -8 6 -14t14 -6z" />
    <glyph glyph-name="vol" unicode="&#xe657;" 
d="M703 612h-1q-15 0 -25.5 -10.5t-10.5 -25.5q0 -14 10.5 -24.5t24.5 -11.5q59 0 100.5 -41.5t41.5 -100.5t-41.5 -100.5t-100.5 -41.5q-14 0 -24.5 -10.5t-10.5 -25t10.5 -25t25.5 -10.5v0h1q87 2 148 64.5t61 149t-61 149t-148 64.5v0zM598 708q-16 9 -34 9
q-21 0 -38 -11l-221 -139h-81v0q-46 0 -78.5 -32.5t-32.5 -78.5v-144q0 -46 32.5 -78.5t78.5 -32.5v0h81l221 -139q17 -10 37 -10q30 0 51 20.5t21 50.5v522v0q0 18 -11 36t-26 27zM343 261q-18 11 -38 11h-81v0q-17 0 -28.5 11.5t-11.5 27.5v1v144q0 17 11.5 28.5
t28.5 11.5h81q20 0 38 11l220 138l1 -522z" />
    <glyph glyph-name="wechat" unicode="&#xe658;" 
d="M856 146q34 29 53.5 66.5t19.5 74.5q0 73 -59 129.5t-145 69.5v3q1 3 1 6t-1 5q-21 92 -111.5 153t-204.5 61q-130 0 -222 -76.5t-92 -183.5q0 -112 106 -193l-21 -58q-1 -5 -1 -10q0 -16 12 -25q9 -8 21 -8v0q8 0 15 3l88 43l5 -2q44 -10 89 -10h2q19 0 37 3q6 1 10 6
q30 -54 91 -86.5t134 -32.5q44 2 86 13l77 -41q5 -2 10 -2q8 0 14 6t6 14q0 3 -1 6zM685 495l20 -3l-20 3v0zM439 236q-13 -2 -27 -2h-3q-41 1 -82 11l-18 3l-83 -40l23 68l-12 9q-102 71 -102 169q0 91 80.5 155t193.5 64q99 0 178 -51.5t97 -128.5v-2v-2h-1
q-102 0 -174.5 -59.5t-72.5 -142.5q0 -26 7 -50q-2 0 -4 -1v0zM819 169q-8 -6 -8 -16q0 -3 1 -6l10 -32l-41 22q-5 2 -10 2v0h-5q-41 -11 -83 -14q-85 0 -145.5 47.5t-60.5 114t60.5 114t145.5 47.5q83 0 144 -48t61 -113q0 -31 -18.5 -62.5t-50.5 -55.5zM317 532z
M281 531.5q0 -14.5 10.5 -25t25.5 -10.5t25.5 10.5t10.5 25t-10.5 25t-25.5 10.5t-25.5 -10.5t-10.5 -25zM514 532zM478 531.5q0 -14.5 10.5 -25t25 -10.5t25 10.5t10.5 25t-10.5 25t-25 10.5t-25 -10.5t-10.5 -25zM608 337zM577 337.5q0 -12.5 9 -21.5t21.5 -9t21.5 9
t9 21.5t-9 21.5t-21.5 9t-21.5 -9t-9 -21.5zM761 337zM731 337.5q0 -12.5 9 -21.5t21.5 -9t21.5 9t9 21.5t-9 21.5t-21.5 9t-21.5 -9t-9 -21.5z" />
    <glyph glyph-name="unlocked" unicode="&#xe659;" 
d="M512 451q-59 0 -101 -42t-42 -101.5t42 -101.5t101 -42t101 42t42 101.5t-42 101.5t-101 42zM512 205v0q-42 0 -72 30t-30 72.5t30 72.5t72 30t72 -30t30 -72.5t-30 -72.5t-72 -30zM512 609v0q-32 0 -74 -10.5t-69 -25.5v36q0 46 35 79.5t85 33.5h46h2q28 0 58.5 -17
t44.5 -41q6 -12 19 -12q8 0 14 6t6 14q0 7 -3 12q-20 33 -61 56t-79 23h-1h-46q-67 0 -114 -45t-47 -109v-63q-49 -38 -83 -107.5t-34 -131.5q0 -125 88.5 -213t213.5 -88t213.5 88t88.5 213t-88.5 213.5t-213.5 88.5h-1zM512 46q-108 0 -184.5 76.5t-76.5 184.5t76.5 184.5
t184.5 76.5t184.5 -76.5t76.5 -184.5t-76.5 -184.5t-184.5 -76.5z" />
  </font>
</defs>
</svg>
