<svg id="图层_1" data-name="图层 1" xmlns="http://www.w3.org/2000/svg" viewBox="0 0 100 100"><defs><style>.cls-1{fill:#262626;fill-rule:evenodd;}</style></defs><title>搜索 副本 11</title><path class="cls-1" d="M56.37,64h-2.7s-.86-.13-1-.82V56.71l-2.66,0V64s.12,1.8,2.66,2.46H59.2V56.75H56.37Z"/><path class="cls-1" d="M46,56.43H43a5,5,0,0,0-4.1,3.69A6.51,6.51,0,0,0,39.33,64,5,5,0,0,0,42.9,66.5h5.7V52.74L46,52.7Zm0,7.82h-2.3a2.42,2.42,0,0,1-2.09-1.92,3.7,3.7,0,0,1,.17-2.13,2.69,2.69,0,0,1,1.76-1.56H46Z"/><path class="cls-1" d="M50,15A35,35,0,1,0,85,50,35,35,0,0,0,50,15Zm2,21.43c.26-2.4,3.13-6.07,5.42-5.55a5.88,5.88,0,0,1,4,6.17c-.41,2.62-2.49,6.07-5.73,5.65S51.7,39.37,52,36.44Zm-6.78-6.59c2.42,0,4.38,2.78,4.38,6.23s-2,6.23-4.38,6.23-4.38-2.79-4.38-6.23S42.82,29.85,45.23,29.85ZM31.58,44.6s.52-5.12,4.06-5.44c2.82-.24,4.89,2.84,5.11,4.61.13,1.15.73,6.38-3.65,7.32S31.1,47,31.58,44.6ZM64.94,66.68c-2.4,5.65-11.16,2.72-11.16,2.72a14.72,14.72,0,0,0-7-.21,24.58,24.58,0,0,1-7,.52s-4.39.11-5.63-5.44,4.38-8.58,4.8-9.1,3.34-2.51,5.21-5.65,7.51-5.65,11.47.52a44.59,44.59,0,0,0,7.93,8.06S67.34,61,64.94,66.68ZM64.21,53.8c-4.8.11-5-3.24-5-5.64s.52-6.07,4.38-6.07,4.9,3.77,4.9,5S69,53.7,64.21,53.8Z"/></svg>