<svg id="图层_1" data-name="图层 1" xmlns="http://www.w3.org/2000/svg" viewBox="0 0 100 100"><defs><style>.cls-1{fill:#262626;}</style></defs><title>活动</title><path class="cls-1" d="M50,12a38.42,38.42,0,0,0-4.7.28A38,38,0,0,0,13.19,40.55,38.75,38.75,0,0,0,12,50,38,38,0,0,0,50,88c.69,0,1.38,0,2.07-.07s1.38-.1,2.07-.17A38,38,0,0,0,87.72,54.7,38.49,38.49,0,0,0,88,50,38,38,0,0,0,50,12ZM84,50c0,.24,0,.47,0,.71A36.43,36.43,0,0,1,49.29,16L50,16A34,34,0,0,1,84,50ZM16,50c0-.83,0-1.65.1-2.47,0-.25,0-.5.07-.75q.09-.89.22-1.78l.07-.44A36.42,36.42,0,0,1,50.75,80.88c0,1.07,0,2.11-.13,3.12H50A34,34,0,0,1,16,50ZM73.87,74.23a34,34,0,0,1-19.22,9.44c.06-.93.1-1.86.1-2.79A40.4,40.4,0,0,0,17.33,40.62a34.16,34.16,0,0,1,28-24.28A40.41,40.41,0,0,0,83.67,54.7,34,34,0,0,1,73.87,74.23Z"/></svg>