<svg id="图层_1" data-name="图层 1" xmlns="http://www.w3.org/2000/svg" viewBox="0 0 100 100"><defs><style>.cls-1{fill:#262626;}</style></defs><title>清屏</title><path class="cls-1" d="M82,26.32H60.16v-5A6.21,6.21,0,0,0,54,15.08H46.92a6.21,6.21,0,0,0-6.18,6.22v5H18a2,2,0,0,0,0,4h7.17V71.39A13.49,13.49,0,0,0,38.58,84.92H61.42A13.49,13.49,0,0,0,74.83,71.39V30.32H82a2,2,0,0,0,0-4Zm-37.26-5a2.2,2.2,0,0,1,2.18-2.22H54a2.2,2.2,0,0,1,2.18,2.22v5H44.74ZM70.83,71.39a9.48,9.48,0,0,1-9.42,9.53H38.58a9.48,9.48,0,0,1-9.42-9.53V30.32H70.83Z"/><path class="cls-1" d="M41.64,69.21a2,2,0,0,0,2-2V45.88a2,2,0,0,0-4,0V67.21A2,2,0,0,0,41.64,69.21Z"/><path class="cls-1" d="M58.36,69.21a2,2,0,0,0,2-2V45.88a2,2,0,0,0-4,0V67.21A2,2,0,0,0,58.36,69.21Z"/></svg>