<svg id="图层_1" data-name="图层 1" xmlns="http://www.w3.org/2000/svg" viewBox="0 0 100 100"><defs><style>.cls-1{fill:#262626;}</style></defs><title>表情</title><circle class="cls-1" cx="22.11" cy="31.91" r="4"/><path class="cls-1" d="M81.87,42.41a2,2,0,0,1-1.41-.59L72,33.33a2,2,0,0,1,0-2.81L80.48,22a2,2,0,0,1,2.83,2.83l-7.09,7.09L83.28,39a2,2,0,0,1-1.41,3.41Z"/><path class="cls-1" d="M50,78.59c-14.74,0-27.3-9.94-29.88-23.63a2,2,0,0,1,3.93-.74C26.29,66,37.2,74.59,50,74.59S73.75,66,76,54.22A2,2,0,0,1,79.9,55C77.32,68.65,64.76,78.59,50,78.59Z"/></svg>