<svg id="图层_1" data-name="图层 1" xmlns="http://www.w3.org/2000/svg" viewBox="0 0 100 100"><defs><style>.cls-1{fill:#262626;fill-rule:evenodd;}</style></defs><title>粉丝数</title><path class="cls-1" d="M72.59,35.71a22.61,22.61,0,1,0-36,18.13,36.91,36.91,0,0,0-23,29,3.5,3.5,0,0,0,3,4,3.55,3.55,0,0,0,.5,0,3.5,3.5,0,0,0,3.46-3A29.92,29.92,0,0,1,50,58.28l.18,0A22.6,22.6,0,0,0,72.59,35.71ZM50,20.16A15.55,15.55,0,1,1,34.37,35.71,15.6,15.6,0,0,1,50,20.16Z"/><path class="cls-1" d="M69.08,66.38c-3.62-8.35-13.92-6.4-14,3.29,0,5.32,4.91,7.32,8.2,9.44S68.75,84,69.1,85.21c.3-1.18,2.83-4.08,5.79-6.15,3.23-2.26,8.23-4.12,8.2-9.44C83,59.89,72.54,58.36,69.08,66.38Z"/></svg>