<svg id="图层_1" data-name="图层 1" xmlns="http://www.w3.org/2000/svg" viewBox="0 0 100 100"><defs><style>.cls-1{fill:#262626;}</style></defs><title>全屏</title><path class="cls-1" d="M39.66,18.91H29.93a11,11,0,0,0-11,11v9.72a3.5,3.5,0,0,0,7,0V29.93a4,4,0,0,1,4-4h9.72a3.5,3.5,0,0,0,0-7Z"/><path class="cls-1" d="M77.58,56.85a3.5,3.5,0,0,0-3.5,3.5v9.72a4,4,0,0,1-4,4H60.34a3.5,3.5,0,1,0,0,7h9.72a11,11,0,0,0,11-11V60.35A3.5,3.5,0,0,0,77.58,56.85Z"/><path class="cls-1" d="M40.07,59.91a3.5,3.5,0,0,0-5,0l-6.67,6.67-6.52-6.52a1.32,1.32,0,0,0-2.26,1V73.45a6.9,6.9,0,0,0,6.9,6.89H39A1.33,1.33,0,0,0,39.91,78L33.4,71.54l6.67-6.67A3.5,3.5,0,0,0,40.07,59.91Z"/><path class="cls-1" d="M59.93,40.09a3.5,3.5,0,0,0,4.95,0l6.67-6.67,6.52,6.52a1.32,1.32,0,0,0,2.26-1V26.55a6.9,6.9,0,0,0-6.9-6.89H61A1.33,1.33,0,0,0,60.09,22l6.51,6.51-6.67,6.67A3.5,3.5,0,0,0,59.93,40.09Z"/></svg>