<svg id="图层_1" data-name="图层 1" xmlns="http://www.w3.org/2000/svg" viewBox="0 0 100 100"><defs><style>.cls-1{fill:#262626;}</style></defs><title>首页</title><path class="cls-1" d="M91.25,45.11,74.84,31.92V21a2,2,0,0,0-4,0v7.69L56.2,16.94a9.12,9.12,0,0,0-12.41,0L8.75,45.11a2,2,0,1,0,2.51,3.12L17,43.61V79a6.48,6.48,0,0,0,6.48,6.46H36.94A6.48,6.48,0,0,0,43.43,79V61.11a.68.68,0,0,1,.69-.68H56.67a.69.69,0,0,1,.69.68V79a6.48,6.48,0,0,0,6.48,6.46H77.3A6.48,6.48,0,0,0,83.79,79V44.24l5,4a2,2,0,1,0,2.51-3.12ZM79.79,79A2.48,2.48,0,0,1,77.3,81.5H63.85A2.48,2.48,0,0,1,61.37,79V61.11a4.69,4.69,0,0,0-4.69-4.68H44.12a4.69,4.69,0,0,0-4.69,4.68V79a2.48,2.48,0,0,1-2.48,2.46H23.49A2.48,2.48,0,0,1,21,79V40.39L46.37,20l.13-.12a5.09,5.09,0,0,1,7,0L79.79,41Z"/></svg>