<svg id="图层_1" data-name="图层 1" xmlns="http://www.w3.org/2000/svg" viewBox="0 0 100 100"><defs><style>.cls-1{fill:#262626;}</style></defs><title>搜索 副本 3</title><path class="cls-1" d="M74.29,35.71a22.61,22.61,0,1,0-36,18.13,36.91,36.91,0,0,0-23,29,3.5,3.5,0,0,0,3,4,3.55,3.55,0,0,0,.5,0,3.5,3.5,0,0,0,3.46-3A29.92,29.92,0,0,1,51.71,58.28l.18,0A22.6,22.6,0,0,0,74.29,35.71ZM51.69,20.16A15.55,15.55,0,1,1,36.08,35.71,15.6,15.6,0,0,1,51.69,20.16Z"/><path class="cls-1" d="M81.29,68.49H73.15V60.34a3.35,3.35,0,1,0-6.71,0v8.15H58.29a3.35,3.35,0,0,0,0,6.71h8.15v8.15a3.35,3.35,0,1,0,6.71,0V75.2h8.15a3.35,3.35,0,0,0,0-6.71Z"/></svg>