<svg id="图层_1" data-name="图层 1" xmlns="http://www.w3.org/2000/svg" viewBox="0 0 100 100"><defs><style>.cls-1{fill:#262626;}</style></defs><title>关注</title><path class="cls-1" d="M68.84,17.49c-8.64-.63-14.38,5.35-17.9,9.84-4.08-4.76-11.11-11.58-20.82-9.54C19.29,20.06,12.57,29.27,13,41.27s9.93,21.44,14.48,26c7.18,7.12,17.46,15.36,23,15.36h.16C56.81,82.39,85.29,65.36,86.92,41,87.84,27.41,80.91,18.38,68.84,17.49Zm2.79,46.62c-8.37,8.62-18.35,14.47-21.17,14.47s-10.79-4.94-20.13-14.2C25.81,59.91,17.41,51.59,17,41.12c-.46-12.47,8.24-19.7,16.62-19.7,7.33,0,12.56,6.4,15.82,10.39a2,2,0,0,0,1.59.73,2,2,0,0,0,1.56-.8c3-4.05,8.07-10.84,15.93-10.26C87.77,22.9,86.93,48.36,71.63,64.11Z"/></svg>