<svg id="图层_1" data-name="图层 1" xmlns="http://www.w3.org/2000/svg" viewBox="0 0 100 100"><defs><style>.cls-1{fill:#262626;}</style></defs><title>锁定</title><path class="cls-1" d="M50,43.5a14,14,0,1,0,14,14A14,14,0,0,0,50,43.5Zm0,24a10,10,0,1,1,10-10A10,10,0,0,1,50,67.5Z"/><path class="cls-1" d="M68,34.15V28c0-8.25-7-15-15.71-15H47.71C39,13,32,19.71,32,28v6.19a29.5,29.5,0,1,0,36,0ZM36,28c0-6,5.26-11,11.71-11h4.57C58.75,17,64,21.92,64,28v3.58a29.45,29.45,0,0,0-28,0ZM50,83A25.5,25.5,0,1,1,75.5,57.5,25.53,25.53,0,0,1,50,83Z"/></svg>