<svg id="图层_1" data-name="图层 1" xmlns="http://www.w3.org/2000/svg" viewBox="0 0 100 100"><defs><style>.cls-1{fill:#262626;fill-rule:evenodd;}</style></defs><title>喊话_1</title><path class="cls-1" d="M77.1,61.69c-1.16.45-9-5.46-14-16.59S58.74,23.78,59.9,23.33,68.69,30,73.69,41.14,78.26,61.23,77.1,61.69Zm2.24-23.24c-6.43-14.33-16.78-25.24-22-23.2C48.43,18.71,62.62,35.32,19,52.32c-3.77,1.47-4.72,7.34-3.15,10.86s6.74,7,10.51,5.54c.65-.26,3.05-1,3.05-1,2.69,3.46,5.51,1.41,6.51,3.61l4.7,10.34c.89,2,2.9,3.76,4.37,3.23l8.33-3A2.6,2.6,0,0,0,55,78.28c-.63-1.38-3.19-1.78-3.92-3.39S48,68.12,47.3,66.5c-.93-2.21,1.05-4,3.94-4.3,19.87-2,23.59,9.77,30.35,7.13C86.83,67.3,85.77,52.77,79.34,38.45Z"/></svg>