<svg id="图层_1" data-name="图层 1" xmlns="http://www.w3.org/2000/svg" viewBox="0 0 100 100"><defs><style>.cls-1{fill:#262626;}</style></defs><title>麦克风</title><path class="cls-1" d="M50,57.57A16.38,16.38,0,0,0,66.36,41.21V31.56a16.36,16.36,0,0,0-32.72,0v9.65A16.38,16.38,0,0,0,50,57.57Zm-9.36-26a9.36,9.36,0,0,1,18.72,0v9.65a9.36,9.36,0,0,1-18.72,0Z"/><path class="cls-1" d="M74.53,51.43a3.5,3.5,0,0,0-4.66,1.68c-3.38,7.19-9.91,11.65-17,11.65H47.12c-7.13,0-13.64-4.46-17-11.64a3.5,3.5,0,1,0-6.34,3c4.42,9.47,13.08,15.41,22.71,15.66V77.8H40.35a3.5,3.5,0,0,0,0,7H59.65a3.5,3.5,0,0,0,0-7H53.5V71.74c9.6-.26,18.26-6.2,22.71-15.65A3.5,3.5,0,0,0,74.53,51.43Z"/></svg>