<svg id="图层_1" data-name="图层 1" xmlns="http://www.w3.org/2000/svg" viewBox="0 0 100 100"><defs><style>.cls-1{fill:#262626;}</style></defs><title>静音</title><path class="cls-1" d="M56.19,18.38a7,7,0,0,0-7.06.19L27.54,32.1H19.63A10.85,10.85,0,0,0,8.78,42.94V57.06A10.85,10.85,0,0,0,19.63,67.9h7.89L49.13,81.43a7,7,0,0,0,10.66-5.92v-51A7,7,0,0,0,56.19,18.38ZM31.23,62a7,7,0,0,0-3.69-1.06H19.63a3.85,3.85,0,0,1-3.84-3.84V42.94a3.85,3.85,0,0,1,3.84-3.84h7.91A7,7,0,0,0,31.23,38L52.78,24.48l.07,51Z"/><path class="cls-1" d="M82.06,48.61l8.13-8.13a3.5,3.5,0,0,0-5-4.95l-8.13,8.13L69,35.53a3.5,3.5,0,0,0-5,4.95l8.13,8.13L64,56.74a3.5,3.5,0,1,0,5,4.95l8.13-8.13,8.13,8.13a3.5,3.5,0,1,0,5-4.95Z"/></svg>