<svg id="图层_1" data-name="图层 1" xmlns="http://www.w3.org/2000/svg" viewBox="0 0 100 100"><defs><style>.cls-1{fill:#262626;}</style></defs><title>麦克风禁止</title><path class="cls-1" d="M82,68.35l-8.15-8.11a29.88,29.88,0,0,0,2.39-4.15c2-4.18-4.36-7.17-6.33-3a23,23,0,0,1-1.13,2.08l-5.06-5c3.29-5,2.68-8.64,2.68-18.59C66.36,15.28,45,9,36.2,22.8l-6.13-6.1a3.5,3.5,0,1,0-4.94,5l8.57,8.53c-.09,1.13-.07.29-.07,11a16.36,16.36,0,0,0,25,13.84l5.51,5.49c-5.92,4.92-11.14,4.23-17.07,4.23-7.13,0-13.64-4.46-17-11.64a3.5,3.5,0,1,0-6.34,3c4.42,9.47,13.08,15.41,22.71,15.66V77.8H40.35c-4.63,0-4.63,7,0,7H59.65c4.63,0,4.63-7,0-7H53.5V71.74A24.75,24.75,0,0,0,69.18,65.5L77,73.31a3.5,3.5,0,0,0,4.94-5ZM59.36,31.56c0,10.3.24,11.11-.83,13.47L41.37,27.94C45.31,18.55,59.36,21.39,59.36,31.56ZM40.64,41.21V37.09L53.49,49.89A9.36,9.36,0,0,1,40.64,41.21Z"/></svg>