<svg id="图层_1" data-name="图层 1" xmlns="http://www.w3.org/2000/svg" viewBox="0 0 100 100"><defs><style>.cls-1{fill:#262626;}</style></defs><title>禁止喊话</title><path class="cls-1" d="M77.56,31.15V26.69a8.21,8.21,0,0,0-3.31-6.61,8.44,8.44,0,0,0-7.48-1.35L31.86,29.59a2,2,0,0,0-.26-.1,17.32,17.32,0,0,0-4.74-.62,18.8,18.8,0,1,0,0,37.6,19.05,19.05,0,0,0,2.1-.12l3.91,10.76a2,2,0,0,0,1.88,1.32,2,2,0,0,0,.68-.12,2,2,0,0,0,1.2-2.56l-3.49-9.58,7.72,2.4a2,2,0,0,0,.6.09,2,2,0,0,0,.59-3.91l-7.29-2.27V32.88L67.91,22.56a4.44,4.44,0,0,1,3.93.72,4.24,4.24,0,0,1,1.71,3.41V45.35a2,2,0,0,0,4,0V35.21A12.76,12.76,0,0,1,87.94,47.67a12.56,12.56,0,0,1-3.85,9.1,2,2,0,0,0,2.78,2.88,16.52,16.52,0,0,0,5.07-12A16.78,16.78,0,0,0,77.56,31.15ZM12.06,47.67a14.82,14.82,0,0,1,14.8-14.8,13.35,13.35,0,0,1,3.66.47l.24,0V62l-.24,0a13.35,13.35,0,0,1-3.66.47A14.82,14.82,0,0,1,12.06,47.67Z"/><path class="cls-1" d="M63.88,47.61A16.94,16.94,0,0,0,52,52.5l-.11.09-.09.11a17,17,0,0,0,24,24l.12-.1.1-.12a17,17,0,0,0-12.12-28.9Zm13,17a12.91,12.91,0,0,1-2.52,7.66L56.23,54.13A13,13,0,0,1,76.88,64.61Zm-26,0A12.91,12.91,0,0,1,53.4,57L71.54,75.1A13,13,0,0,1,50.88,64.61Z"/></svg>