<svg id="图层_1" data-name="图层 1" xmlns="http://www.w3.org/2000/svg" viewBox="0 0 100 100"><defs><style>.cls-1{fill:#262626;}</style></defs><title>公告</title><path d="M62.72,38.67a2,2,0,0,1-2.06-1.81c0-4.18-3.83-7.58-8.54-7.58a1.83,1.83,0,1,1,0-3.63c7,0,12.66,5,12.66,11.2A2,2,0,0,1,62.72,38.67Z"/><path d="M50,72l-12.17-.13a3,3,0,0,1-2.25-1.12A4.56,4.56,0,0,1,35.09,67a8.7,8.7,0,0,0,.13-1.19V62.6C28.94,57.76,22.5,49,22.5,40.24a27.5,27.5,0,0,1,55,0c0,8.74-6.44,17.53-12.72,22.36v3.2A8.58,8.58,0,0,0,64.91,67a4.56,4.56,0,0,1-.51,3.73,3,3,0,0,1-2.25,1.12H62ZM39.14,67.74,50,67.86l10.84-.12,0-.12a11.79,11.79,0,0,1-.18-1.82v-5.3l.86-.62c5.89-4.21,11.86-12.31,11.86-19.65a23.38,23.38,0,0,0-46.76,0c0,7.34,6,15.44,11.86,19.65l.86.62v5.3a11.77,11.77,0,0,1-.18,1.82Z"/><path d="M65.45,79.56H34.55a2.06,2.06,0,0,1,0-4.12H65.45A2.06,2.06,0,0,1,65.45,79.56Z"/><path class="cls-1" d="M58.24,87.13H41.76a2.06,2.06,0,0,1,0-4.12H58.24A2.06,2.06,0,0,1,58.24,87.13Z"/></svg>