<svg id="图层_1" data-name="图层 1" xmlns="http://www.w3.org/2000/svg" viewBox="0 0 100 100"><defs><style>.cls-1,.cls-2{fill:#262626;}.cls-2{fill-rule:evenodd;}</style></defs><title>网络差</title><path class="cls-1" d="M11.06,46.14A3.5,3.5,0,0,1,8,41a47.71,47.71,0,0,1,84-.21,3.5,3.5,0,0,1-6.16,3.33,40.71,40.71,0,0,0-71.71.17A3.5,3.5,0,0,1,11.06,46.14Z"/><path class="cls-1" d="M22.08,57.76a3.5,3.5,0,0,1-3.23-4.83A33.64,33.64,0,0,1,50.05,32c10.77,0,20.85,5.45,28.37,15.34a3.5,3.5,0,1,1-5.57,4.24C66.68,43.51,58.59,39,50.05,39A26.66,26.66,0,0,0,25.32,55.6,3.5,3.5,0,0,1,22.08,57.76Z"/><path class="cls-1" d="M34.4,67.1A3.5,3.5,0,0,1,31,62.63a19.79,19.79,0,0,1,32.11-9.35,3.5,3.5,0,0,1-4.63,5.25,12.79,12.79,0,0,0-20.75,6A3.5,3.5,0,0,1,34.4,67.1Z"/><path class="cls-2" d="M50,68a6,6,0,1,1-6,6A6,6,0,0,1,50,68Z"/><path class="cls-2" d="M74,59A11,11,0,1,0,85,70,11,11,0,0,0,74,59Zm6.31,17.3a2,2,0,0,1-2.83,0L74,72.83,70.52,76.3a2,2,0,1,1-2.83-2.83L71.17,70,67.7,66.54a2,2,0,1,1,2.83-2.83L74,67.18l3.48-3.47a2,2,0,0,1,2.83,2.83L76.83,70l3.48,3.47A2,2,0,0,1,80.31,76.3Z"/></svg>