<svg id="图层_1" data-name="图层 1" xmlns="http://www.w3.org/2000/svg" viewBox="0 0 100 100"><defs><style>.cls-1{fill:#262626;}</style></defs><title>在线人数</title><path class="cls-1" d="M62.34,66.12A27.76,27.76,0,1,0,22,41.29,27.68,27.68,0,0,0,37.68,66.14L30.11,83.59a2,2,0,1,0,3.67,1.59L41.4,67.62a28.24,28.24,0,0,0,17.23,0L66.3,85.19A2,2,0,1,0,70,83.59ZM26,41.29A24,24,0,1,1,59.06,63.21l-.15,0-.06,0A24.15,24.15,0,0,1,50,65,23.87,23.87,0,0,1,26,41.29Z"/><path class="cls-1" d="M64.52,44a2,2,0,1,0-3.91-.86c-1.18,5.34-5.54,9.06-10.62,9.06s-9.44-3.73-10.62-9.06a2,2,0,1,0-3.91.86C37.06,51.15,43,56.17,50,56.17S62.94,51.15,64.52,44Z"/></svg>