<svg id="图层_1" data-name="图层 1" xmlns="http://www.w3.org/2000/svg" viewBox="0 0 100 100"><defs><style>.cls-1{fill:#262626;}</style></defs><title>app</title><circle class="cls-1" cx="50" cy="73.92" r="4.02"/><path class="cls-1" d="M66.79,14.65H32.21a8.93,8.93,0,0,0-8.92,8.92V75.44a8.93,8.93,0,0,0,8.92,8.92H66.79a8.93,8.93,0,0,0,8.92-8.92V23.56A8.93,8.93,0,0,0,66.79,14.65Zm-34.58,4H66.79a4.92,4.92,0,0,1,4.92,4.92v2.91H27.29V23.56A4.92,4.92,0,0,1,32.21,18.65ZM27.29,30.47H71.71V64.14H27.29Zm39.5,49.89H32.21a4.92,4.92,0,0,1-4.92-4.92v-7.3H71.71v7.3A4.92,4.92,0,0,1,66.79,80.35Z"/></svg>