<svg id="图层_1" data-name="图层 1" xmlns="http://www.w3.org/2000/svg" viewBox="0 0 100 100"><defs><style>.cls-1{fill:#262626;fill-rule:evenodd;}</style></defs><title>qq</title><path class="cls-1" d="M50,15A35,35,0,1,0,85,50,35,35,0,0,0,50,15ZM65.54,58.53a25.57,25.57,0,0,1-3.15,5.75s3.64,1.24,3.33,4.45c0,0,.12,3.59-7.77,3.34,0,0-5.55-.43-7.22-2.78H49.27C47.6,71.64,42,72.08,42,72.08c-7.9.25-7.78-3.34-7.78-3.34-.31-3.22,3.33-4.45,3.33-4.45a25.58,25.58,0,0,1-3.15-5.75c-4.94,8-4.44-1.11-4.44-1.11a17.15,17.15,0,0,1,4.81-8.91c-.56-4.89,1.48-5.75,1.48-5.75C36.73,27.64,49.73,27.91,50,27.91s13.26-.27,13.69,14.84c0,0,2,.87,1.48,5.75A17.15,17.15,0,0,1,70,57.42h0S70.48,66.51,65.54,58.53Z"/></svg>