<svg id="图层_1" data-name="图层 1" xmlns="http://www.w3.org/2000/svg" viewBox="0 0 100 100"><defs><style>.cls-1{fill:#262626;}</style></defs><title>问号</title><path class="cls-1" d="M50,15A35,35,0,1,0,85,50,35,35,0,0,0,50,15Zm.39,58.42A2.37,2.37,0,1,1,52.76,71,2.38,2.38,0,0,1,50.39,73.42Zm7-23.92-.13.08-.69.43c-2.65,1.74-4,4-4,6.65V61.3H48.14V53.46a5.21,5.21,0,0,1,2.84-5l4.85-3.3a7.71,7.71,0,0,0,3.31-5.72,7,7,0,0,0-1.91-5.62,10.17,10.17,0,0,0-7.09-2.74,11.42,11.42,0,0,0-2.25.22c-7.34,1.49-7.59,7.54-7.6,10.73H35.83c.16-5.59,1.09-8.12,4-11.35a12.7,12.7,0,0,1,9.82-4.08,20,20,0,0,1,4,.43c4.35.9,10.48,5.34,10.48,12.4C64.2,45.35,60,48,57.43,49.5Z"/></svg>