<svg id="图层_1" data-name="图层 1" xmlns="http://www.w3.org/2000/svg" viewBox="0 0 100 100"><defs><style>.cls-1{fill:#262626;fill-rule:evenodd;}</style></defs><title>qq空间</title><polygon class="cls-1" points="62.62 45.17 39.25 45.17 54.64 47.81 38.11 61.28 63.19 61.28 48.37 58.08 62.62 45.17"/><path class="cls-1" d="M50,15A35,35,0,1,0,85,50,35,35,0,0,0,50,15ZM72.31,46.57l-8.55,7.34L66.6,72.16c-.57.57-.58.57-1.16.57L50.59,63.6,35.71,72.73c-1.14,0-1.26,0-1.26-.57l2-18.25-9-8-3.22-2.28v-.26H42.1l2.28-4.06,5.7-12h1.14l6.27,12,2.28,4.06H75.17c.57,0,.57-.16.57.41Z"/></svg>