<svg id="图层_1" data-name="图层 1" xmlns="http://www.w3.org/2000/svg" viewBox="0 0 100 100"><defs><style>.cls-1{fill:#262626;}</style></defs><title>排行</title><path class="cls-1" d="M83.9,18.95a14,14,0,0,0-10-4.25h-48A13.76,13.76,0,0,0,16,19,14.79,14.79,0,0,0,12,29.12,14.19,14.19,0,0,0,25.89,43.53h.5v3.67c0,9.18,7.84,16.64,17.48,16.64h4a2,2,0,0,0,0,.26V81.3H36.35a2,2,0,0,0,0,4H63.44a2,2,0,1,0,0-4H51.9V64.11a2,2,0,0,0,0-.26h4c9.64,0,17.48-7.47,17.48-16.64V43.53h.53A14.27,14.27,0,0,0,88,29.12,14.68,14.68,0,0,0,83.9,18.95Zm-58,20.59A10.18,10.18,0,0,1,16,29.12a10.75,10.75,0,0,1,2.94-7.39,9.74,9.74,0,0,1,7-3h.5V39.53Zm43.5,7.67c0,7-6,12.64-13.48,12.64h-12c-7.43,0-13.48-5.67-13.48-12.64V18.7h39Zm4.53-7.67H73.4V18.7h.53a10,10,0,0,1,7.11,3,10.65,10.65,0,0,1,3,7.38A10.27,10.27,0,0,1,73.92,39.53Z"/></svg>