<svg id="图层_1" data-name="图层 1" xmlns="http://www.w3.org/2000/svg" viewBox="0 0 100 100"><defs><style>.cls-1{fill:#262626;}</style></defs><title>刷新</title><path class="cls-1" d="M85.66,60.39l-4.53-1.17A32.49,32.49,0,0,0,43.56,18.16a2,2,0,0,0,.79,3.92,28.45,28.45,0,0,1,32.9,36.14L72.32,57a2.91,2.91,0,0,0-3.75,3.46L72.3,72.7A3.25,3.25,0,0,0,77.51,74l9.61-8.85A2.82,2.82,0,0,0,85.66,60.39Z"/><path class="cls-1" d="M56.23,77.79a28.44,28.44,0,0,1-34-34.18l4.41,1.14a2.91,2.91,0,0,0,3.75-3.46L26.7,29a3.25,3.25,0,0,0-5.21-1.34l-9.61,8.85a2.82,2.82,0,0,0,1.46,4.8l5.05,1.3A32.49,32.49,0,0,0,57.1,81.69a2,2,0,1,0-.87-3.9Z"/></svg>