<svg id="图层_1" data-name="图层 1" xmlns="http://www.w3.org/2000/svg" viewBox="0 0 100 100"><defs><style>.cls-1{fill:#262626;}</style></defs><title>休息</title><path class="cls-1" d="M44,31.69a3.5,3.5,0,0,0,3.5-3.5V15.26a3.5,3.5,0,1,0-7,0V28.19A3.5,3.5,0,0,0,44,31.69Z"/><path class="cls-1" d="M31.36,29.56a3.5,3.5,0,0,0,3.5-3.5V18.31a3.5,3.5,0,1,0-7,0v7.76A3.5,3.5,0,0,0,31.36,29.56Z"/><path class="cls-1" d="M56.57,29.56a3.5,3.5,0,0,0,3.5-3.5V18.31a3.5,3.5,0,0,0-7,0v7.76A3.5,3.5,0,0,0,56.57,29.56Z"/><path class="cls-1" d="M63.58,35.22c-.11,0-.21,0-.32,0s-.21,0-.32,0H25a3.5,3.5,0,0,0-3.5,3.5v17A20.34,20.34,0,0,0,41.81,76.08h4.31a20.33,20.33,0,0,0,19-13.24c7.5-.73,13.36-6.62,13.36-13.77C78.5,41.43,71.81,35.22,63.58,35.22ZM46.12,69.08H41.81A13.33,13.33,0,0,1,28.5,55.77V42.22H59.43V55.77A13.33,13.33,0,0,1,46.12,69.08ZM66.43,55.45V42.69a7,7,0,0,1,5.07,6.38A7,7,0,0,1,66.43,55.45Z"/><path class="cls-1" d="M64.12,80.24H27.26a3.49,3.49,0,0,0-3,1.77,3.49,3.49,0,0,0,2.16,6.23H63.26a3.49,3.49,0,0,0,3-1.77,3.49,3.49,0,0,0-2.16-6.23Z"/></svg>