<svg id="图层_1" data-name="图层 1" xmlns="http://www.w3.org/2000/svg" viewBox="0 0 100 100"><defs><style>.cls-1{fill:#262626;fill-rule:evenodd;}</style></defs><title>热度</title><path class="cls-1" d="M84.33,21.63c-.39,12.56-5.76,26.84-16.12,36.24a1.54,1.54,0,0,0-.54,1.43c1.43,13.82,1,13-15.84,23.89A3.69,3.69,0,0,1,46,80.43c-1.22-12.79-.24-11.67-2.52-12a13.41,13.41,0,0,1-10.12-6.34c-5.44-8.64,4.44-6.45-13.56-7.79A3.72,3.72,0,0,1,17,48.52c.27-.44,6.86-10.69,7.09-11,4.61-7.14,11.31-5.34,16.79-4.76a1.12,1.12,0,0,0,1.08-.36C54.33,18.66,74.77,15,82.51,16.43c1.27.23,1.33.28,1.53,1.51a18.29,18.29,0,0,1,.29,3.7ZM69.24,38.75a7.54,7.54,0,1,0-15.07,0C54,44.9,62,49,67,44.1a7.6,7.6,0,0,0,2.28-5.34Z"/><path class="cls-1" d="M20.08,69.8c2.79-8.37,15.51-4.73,13.46,3.83a7,7,0,0,1-4.59,5l-13.3,4.42Z"/></svg>