<svg id="图层_1" data-name="图层 1" xmlns="http://www.w3.org/2000/svg" viewBox="0 0 100 100"><defs><style>.cls-1{fill:#262626;}</style></defs><title>发送按钮</title><path class="cls-1" d="M83.84,23.63a8.56,8.56,0,0,0-7.5-4.32h-.15L23.53,22.4a8.68,8.68,0,0,0-7.59,4.52,8,8,0,0,0,2.9,10.58L35.24,48a4.13,4.13,0,0,1,1.91,3.12l2.07,22.29a8,8,0,0,0,5.42,6.94,8.87,8.87,0,0,0,2.56.38,8.76,8.76,0,0,0,7.54-4.31l29-44,.06-.09A8.54,8.54,0,0,0,83.84,23.63ZM21,34.13a4.07,4.07,0,0,1-1.55-5.26,4.73,4.73,0,0,1,4.16-2.46h.11l52.65-3.08a4.66,4.66,0,0,1,2.52.75L38.6,45.53a8.24,8.24,0,0,0-1.21-1Zm59.38-3.89-29,44-.06.09a4.78,4.78,0,0,1-5.52,2.16A3.94,3.94,0,0,1,43.2,73L41.13,50.71a8.24,8.24,0,0,0-.37-1.79L81,27.49A4.63,4.63,0,0,1,80.37,30.24Z"/></svg>