<svg id="图层_1" data-name="图层 1" xmlns="http://www.w3.org/2000/svg" viewBox="0 0 100 100"><defs><style>.cls-1{fill:#262626;}</style></defs><title>设置</title><path class="cls-1" d="M54,86.27H48a8.06,8.06,0,0,1-8-8V77a29,29,0,0,1-6.8-3.93l-1,.6a8.07,8.07,0,0,1-11-2.95l-3-5.24a8.06,8.06,0,0,1,2.95-11l1-.6a28.86,28.86,0,0,1,0-7.86l-1-.6a8.06,8.06,0,0,1-2.95-11l3-5.24a8.06,8.06,0,0,1,11-2.95l1,.6A29,29,0,0,1,39.93,23V21.77a8.06,8.06,0,0,1,8-8h6a8.06,8.06,0,0,1,8,8V23a29,29,0,0,1,6.8,3.93l1-.6a8.07,8.07,0,0,1,11,2.95l3,5.24a8.06,8.06,0,0,1-2.95,11l-1,.6a28.86,28.86,0,0,1,0,7.86l1,.6a8.06,8.06,0,0,1,2.95,11l-3,5.24a8.06,8.06,0,0,1-11,2.95l-1-.6A29,29,0,0,1,62.07,77v1.19A8.06,8.06,0,0,1,54,86.27Zm-20.48-18,1.08.92a25.07,25.07,0,0,0,8,4.61l1.33.47v4a4.05,4.05,0,0,0,4,4h6a4.05,4.05,0,0,0,4-4v-4l1.33-.47a25.07,25.07,0,0,0,8-4.61l1.08-.92,3.45,2a4.06,4.06,0,0,0,5.53-1.48l3-5.24A4.05,4.05,0,0,0,79,58l-3.45-2,.26-1.39a25,25,0,0,0,0-9.22L75.53,44,79,42a4.05,4.05,0,0,0,1.48-5.53l-3-5.24a4.06,4.06,0,0,0-5.53-1.48l-3.45,2-1.08-.92a25.08,25.08,0,0,0-8-4.61l-1.33-.47v-4a4.05,4.05,0,0,0-4-4H48a4.05,4.05,0,0,0-4,4v4l-1.33.47a25.08,25.08,0,0,0-8,4.61l-1.08.92-3.45-2a4.06,4.06,0,0,0-5.53,1.48l-3,5.24A4.05,4.05,0,0,0,23,42l3.45,2-.26,1.39a25,25,0,0,0,0,9.22L26.47,56,23,58a4.05,4.05,0,0,0-1.48,5.53l3,5.24a4.06,4.06,0,0,0,5.53,1.48Z"/><path class="cls-1" d="M51,63.35A13.35,13.35,0,1,1,64.35,50,13.37,13.37,0,0,1,51,63.35Zm0-22.71A9.35,9.35,0,1,0,60.35,50,9.37,9.37,0,0,0,51,40.65Z"/></svg>