<svg id="图层_1" data-name="图层 1" xmlns="http://www.w3.org/2000/svg" viewBox="0 0 100 100"><defs><style>.cls-1{fill:#262626;fill-rule:evenodd;}</style></defs><title>设置 主播端</title><path class="cls-1" d="M81.35,43c-2.21,0-4.22.38-4.86-1.61-1.89-5.83-3.48-4.44.64-8.56a4.68,4.68,0,0,0,0-6.57l-3.37-3.37a4.68,4.68,0,0,0-6.57,0c-4,4-2.35,2.65-8.57.64-2-.64-1.61-2.61-1.61-4.86A4.66,4.66,0,0,0,52.38,14H47.62A4.66,4.66,0,0,0,43,18.64c0,2.28.37,4.22-1.61,4.86-5.85,1.89-4.44,3.5-8.57-.64a4.68,4.68,0,0,0-6.57,0l-3.37,3.37a4.68,4.68,0,0,0,0,6.57c1.56,1.56,3.24,2.71,2.29,4.57C22.36,42.85,24.5,43,18.65,43A4.66,4.66,0,0,0,14,47.62v4.76A4.66,4.66,0,0,0,18.65,57c2.2,0,4.2-.37,4.85,1.6,1.9,5.85,3.49,4.44-.63,8.58a4.66,4.66,0,0,0,0,6.56l3.37,3.37a4.65,4.65,0,0,0,6.57,0c1.61-1.61,2.72-3.24,4.57-2.29,5.49,2.81,5.6.68,5.6,6.51A4.66,4.66,0,0,0,47.62,86h4.76A4.66,4.66,0,0,0,57,81.35c0-2.2-.37-4.2,1.61-4.85,5.86-1.9,4.44-3.5,8.57.63a4.65,4.65,0,0,0,6.57,0l3.37-3.37a4.66,4.66,0,0,0,0-6.56c-1.61-1.62-3.24-2.73-2.29-4.58,2.81-5.49.68-5.61,6.51-5.61A4.66,4.66,0,0,0,86,52.38V47.62A4.66,4.66,0,0,0,81.35,43ZM50,63.94A13.94,13.94,0,1,1,63.94,50,13.94,13.94,0,0,1,50,63.94Z"/></svg>