<svg id="图层_1" data-name="图层 1" xmlns="http://www.w3.org/2000/svg" viewBox="0 0 100 100"><defs><style>.cls-1{fill:#262626;}</style></defs><title>分享</title><path class="cls-1" d="M76.16,62.27A11.51,11.51,0,0,0,65.89,68.6L37.44,55.78a13.76,13.76,0,0,0,1.41-13.91l23.31-12a9.17,9.17,0,1,0-1.91-3.51L36.67,38.5a13.89,13.89,0,1,0-2.25,20.31L64.72,72.47a11.51,11.51,0,1,0,11.43-10.2ZM69,18.71a5.13,5.13,0,1,1-5.13,5.13A5.14,5.14,0,0,1,69,18.71Zm-42.8,38.8a9.89,9.89,0,1,1,9.89-9.89A9.9,9.9,0,0,1,26.22,57.51ZM76.16,81.29a7.51,7.51,0,1,1,7.51-7.51A7.52,7.52,0,0,1,76.16,81.29Z"/></svg>