<svg id="图层_1" data-name="图层 1" xmlns="http://www.w3.org/2000/svg" viewBox="0 0 100 100"><defs><style>.cls-1{fill:#262626;}</style></defs><title>商店</title><path class="cls-1" d="M87,42.1a10.19,10.19,0,0,0-1-4.38l-.1-.25,0-.08a3.16,3.16,0,0,0-.19-.35h0L78.54,21.68A11.4,11.4,0,0,0,68.06,15.5H31.88A11.39,11.39,0,0,0,21.4,21.68L14.18,37.15l-.05.13,0,.11v.06a2,2,0,0,0-.14.27v0l0,.06A11.15,11.15,0,0,0,13,42.1v.49a12,12,0,0,0,7.5,10.23V74.5c0,5.51,4.84,10,10.8,10H68.7c6,0,10.8-4.49,10.8-10V52.79C83.94,50.81,87,46.77,87,42.1ZM75.5,74.5c0,3.31-3.05,6-6.8,6H31.3c-3.75,0-6.8-2.69-6.8-6V53.94a15.77,15.77,0,0,0,2.17.16,14.15,14.15,0,0,0,11.56-5.64A14.14,14.14,0,0,0,50,54.4a14.13,14.13,0,0,0,11.75-5.91A14.15,14.15,0,0,0,73.33,54.1a15.49,15.49,0,0,0,2.17-.17ZM73.33,50.1c-5.14,0-9.48-3.45-9.67-7.6v-.4a2,2,0,0,0-4,0v.38c0,4.37-4.38,7.92-9.67,7.92s-9.62-3.55-9.67-7.9v-.4a2,2,0,0,0-4,0v.34c-.27,4.23-4.59,7.66-9.67,7.66S17.18,46.65,17,42.5v-.4a7,7,0,0,1,.54-2.67l.08-.15.08-.15c.06-.12.1-.23.14-.33v0L25,23.37a7.5,7.5,0,0,1,6.85-3.87H68.06a7.5,7.5,0,0,1,6.85,3.87l7.22,15.47a1.89,1.89,0,0,0,.12.22h0v0l0,.13.06.13A6.31,6.31,0,0,1,83,42.1C83,46.51,78.66,50.1,73.33,50.1Z"/><path class="cls-1" d="M67.5,30.5h-35a2,2,0,0,0,0,4h35a2,2,0,0,0,0-4Z"/></svg>