<svg id="图层_1" data-name="图层 1" xmlns="http://www.w3.org/2000/svg" viewBox="0 0 100 100"><defs><style>.cls-1,.cls-2{fill:#262626;}.cls-2{fill-rule:evenodd;}</style></defs><title>新浪</title><path class="cls-1" d="M41.79,60.72c-1.38.16-2.5-.62-2.5-1.75a2.61,2.61,0,0,1,2.38-2.44c1.59-.15,2.63.74,2.63,1.87A2.65,2.65,0,0,1,41.79,60.72Z"/><path class="cls-1" d="M46.16,57.09A.87.87,0,0,1,44.87,57a1,1,0,0,1,.31-1.37.91.91,0,0,1,1.37.12A1.1,1.1,0,0,1,46.16,57.09Z"/><path class="cls-2" d="M45.13,48.07c-7.38.33-13.34,4.17-13.34,9s6,8.39,13.34,8.05,13.36-4.82,13.36-9.61S52.51,47.74,45.13,48.07Zm5,12.06a8.77,8.77,0,0,1-11.07,1.93,3.7,3.7,0,0,1-2-3.23s-.86-6.76,6.56-7.6S52.42,57.29,50.16,60.13Z"/><path class="cls-2" d="M50,15A35,35,0,1,0,85,50,35,35,0,0,0,50,15ZM65.08,58.66C62,64.94,52,68,44.58,67.44,37.52,66.9,28.43,64.61,27.5,56.3c0,0-.5-3.77,3.26-8.64,0,0,5.4-7.33,11.69-9.42s7,1.44,7,3.52c-.33,1.77-1,2.81,1.4,2.09,0,0,6.19-2.79,8.73-.32,2.05,2,.34,4.75.34,4.75s-.85.92.9,1.25S68.13,52.37,65.08,58.66ZM59,41.3a1.19,1.19,0,1,1,0-2.37s7.58-1.36,6.68,6.56a.48.48,0,0,1,0,.13,1.22,1.22,0,0,1-2.42-.19S64.43,40.13,59,41.3ZM71.8,47.64h0c-.2,1.34-.89,1.45-1.7,1.45a1.6,1.6,0,0,1-1.76-1.55,5,5,0,0,1,.35-1.66,7.49,7.49,0,0,0-.54-5.71A9.43,9.43,0,0,0,59.37,36a8.65,8.65,0,0,1-1.6.37,1.72,1.72,0,0,1-.48-3.39.08.08,0,0,1,0,0c.05,0,.11-.06.17-.07a15.57,15.57,0,0,1,6.07-.06C68.26,33.84,74.7,38.25,71.8,47.64Z"/></svg>