<svg id="图层_1" data-name="图层 1" xmlns="http://www.w3.org/2000/svg" viewBox="0 0 100 100"><defs><style>.cls-1{fill:#262626;}</style></defs><title>喊话</title><path class="cls-1" d="M91.94,49.27A16.71,16.71,0,0,0,77.56,32.75V28.29a8.2,8.2,0,0,0-3.31-6.61,8.41,8.41,0,0,0-7.47-1.35L31.86,31.19a2,2,0,0,0-.26-.1,17.31,17.31,0,0,0-4.74-.62,18.8,18.8,0,1,0,0,37.6,19.06,19.06,0,0,0,2.1-.12L32.87,78.7A2,2,0,0,0,34.75,80a2,2,0,0,0,.68-.12,2,2,0,0,0,1.2-2.56l-3.48-9.57L66.77,78.22h0a8.6,8.6,0,0,0,2.38.34,8.38,8.38,0,0,0,5.06-1.7,8.2,8.2,0,0,0,3.31-6.61V65.8A16.71,16.71,0,0,0,91.94,49.27Zm-79.88,0a14.82,14.82,0,0,1,14.8-14.8,13.34,13.34,0,0,1,3.66.47l.24,0V63.55l-.24,0a13.34,13.34,0,0,1-3.66.47A14.82,14.82,0,0,1,12.06,49.27Zm61.5,21a4.24,4.24,0,0,1-1.72,3.41,4.43,4.43,0,0,1-3.9.72L34.75,64.07V34.48L67.92,24.16a4.42,4.42,0,0,1,3.92.71,4.24,4.24,0,0,1,1.72,3.41Zm4-8.51v-25a12.69,12.69,0,0,1,0,25Z"/></svg>