<svg id="图层_1" data-name="图层 1" xmlns="http://www.w3.org/2000/svg" viewBox="0 0 100 100"><defs><style>.cls-1{fill:#262626;}</style></defs><title>广场</title><path class="cls-1" d="M32.27,16a11.21,11.21,0,0,1,11.2,11.2v5.07a11.21,11.21,0,0,1-11.2,11.2H27.2A11.21,11.21,0,0,1,16,32.27V27.2A11.21,11.21,0,0,1,27.2,16h5.07m0-4H27.2A15.2,15.2,0,0,0,12,27.2v5.07a15.2,15.2,0,0,0,15.2,15.2h5.07a15.2,15.2,0,0,0,15.2-15.2V27.2A15.2,15.2,0,0,0,32.27,12Z"/><path class="cls-1" d="M72.8,16A11.21,11.21,0,0,1,84,27.2v5.07a11.21,11.21,0,0,1-11.2,11.2H67.73a11.21,11.21,0,0,1-11.2-11.2V27.2A11.21,11.21,0,0,1,67.73,16H72.8m0-4H67.73a15.2,15.2,0,0,0-15.2,15.2v5.07a15.2,15.2,0,0,0,15.2,15.2H72.8A15.2,15.2,0,0,0,88,32.27V27.2A15.2,15.2,0,0,0,72.8,12Z"/><path class="cls-1" d="M32.27,56.53a11.21,11.21,0,0,1,11.2,11.2V72.8A11.21,11.21,0,0,1,32.27,84H27.2A11.21,11.21,0,0,1,16,72.8V67.73a11.21,11.21,0,0,1,11.2-11.2h5.07m0-4H27.2A15.2,15.2,0,0,0,12,67.73V72.8A15.2,15.2,0,0,0,27.2,88h5.07a15.2,15.2,0,0,0,15.2-15.2V67.73a15.2,15.2,0,0,0-15.2-15.2Z"/><path class="cls-1" d="M72.8,56.53A11.21,11.21,0,0,1,84,67.73V72.8A11.21,11.21,0,0,1,72.8,84H67.73a11.21,11.21,0,0,1-11.2-11.2V67.73a11.21,11.21,0,0,1,11.2-11.2H72.8m0-4H67.73a15.2,15.2,0,0,0-15.2,15.2V72.8A15.2,15.2,0,0,0,67.73,88H72.8A15.2,15.2,0,0,0,88,72.8V67.73a15.2,15.2,0,0,0-15.2-15.2Z"/></svg>