<svg id="图层_1" data-name="图层 1" xmlns="http://www.w3.org/2000/svg" viewBox="0 0 100 100"><defs><style>.cls-1{fill:#262626;fill-rule:evenodd;}</style></defs><title>搜索 副本 10</title><path class="cls-1" d="M50,15A35,35,0,1,0,85,50,35,35,0,0,0,50,15ZM28.13,71.93A1.09,1.09,0,0,1,27,73.13h-.12a1.12,1.12,0,0,1-1.23-1C24.71,61.72,28,54.4,31,50a29.36,29.36,0,0,1,3.13-3.89,4.47,4.47,0,0,1-.38-1.82,4.6,4.6,0,1,1,2,3.79,25.85,25.85,0,0,0-2.73,3.4,30.62,30.62,0,0,0-4.82,20.42Zm10-13.45A14.46,14.46,0,0,1,35,58.14a1.25,1.25,0,0,1-.93-1.48,1.23,1.23,0,0,1,1.48-.93A11.56,11.56,0,0,0,38.1,56,11.42,11.42,0,1,0,26.68,44.61a11.29,11.29,0,0,0,1.25,5.2,1.23,1.23,0,0,1-2.2,1.13A13.9,13.9,0,1,1,38.1,58.48ZM63.94,42.34a8,8,0,0,1-3.61-.77,7.88,7.88,0,1,1,10.49-3.74,9,9,0,0,1-.94,1.52.7.7,0,1,1-1.09-.87,6,6,0,0,0,.76-1.25,6.47,6.47,0,1,0-8.62,3.08,6.35,6.35,0,0,0,3,.62.71.71,0,0,1,0,1.42Zm10.92,5.24a19,19,0,0,1-10.08-8.12,17.23,17.23,0,0,1-1.23-2.57,2.68,2.68,0,0,1-1-.25,2.63,2.63,0,1,1,2.4-.1A15.44,15.44,0,0,0,66,38.79a17.5,17.5,0,0,0,9.31,7.46.71.71,0,0,1,.42.9s0,0,0,.07a.72.72,0,0,1-.88.35Z"/></svg>