<svg id="图层_1" data-name="图层 1" xmlns="http://www.w3.org/2000/svg" viewBox="0 0 100 100"><defs><style>.cls-1{fill:#262626;}</style></defs><title>收起全屏</title><path class="cls-1" d="M39.66,18.91a3.5,3.5,0,0,0-3.5,3.5v9.72a4,4,0,0,1-4,4H22.42a3.5,3.5,0,1,0,0,7h9.72a11,11,0,0,0,11-11V22.41A3.5,3.5,0,0,0,39.66,18.91Z"/><path class="cls-1" d="M77.58,56.85H67.86a11,11,0,0,0-11,11v9.72a3.5,3.5,0,0,0,7,0V67.87a4,4,0,0,1,4-4h9.72a3.5,3.5,0,0,0,0-7Z"/><path class="cls-1" d="M38.27,61.69a6.9,6.9,0,0,0-4.88-2H21A1.33,1.33,0,0,0,20.06,62l6.51,6.51L19.9,75.15a3.5,3.5,0,1,0,4.95,4.95l6.67-6.67L38,79.95a1.32,1.32,0,0,0,2.26-1V66.57A6.9,6.9,0,0,0,38.27,61.69Z"/><path class="cls-1" d="M61.73,38.31a6.9,6.9,0,0,0,4.88,2H79A1.33,1.33,0,0,0,79.94,38l-6.51-6.51,6.67-6.67a3.5,3.5,0,0,0-4.95-4.95l-6.67,6.67L62,20.05a1.32,1.32,0,0,0-2.26,1V33.43A6.9,6.9,0,0,0,61.73,38.31Z"/></svg>