<svg id="图层_1" data-name="图层 1" xmlns="http://www.w3.org/2000/svg" viewBox="0 0 100 100"><defs><style>.cls-1{fill:#262626;}</style></defs><title>解锁</title><path class="cls-1" d="M50,43.5a14,14,0,1,0,14,14A14,14,0,0,0,50,43.5Zm0,24a10,10,0,1,1,10-10A10,10,0,0,1,50,67.5Z"/><path class="cls-1" d="M50,28a29.32,29.32,0,0,0-14,3.54V28c0-6,5.25-11,11.71-11h4.57a11.88,11.88,0,0,1,10.25,5.66,2,2,0,1,0,3.44-2A15.9,15.9,0,0,0,52.29,13H47.71C39,13,32,19.71,32,28v6.19A29.48,29.48,0,1,0,50,28Zm0,55A25.5,25.5,0,1,1,75.5,57.5,25.53,25.53,0,0,1,50,83Z"/></svg>