<svg id="图层_1" data-name="图层 1" xmlns="http://www.w3.org/2000/svg" viewBox="0 0 100 100"><defs><style>.cls-1{fill:#262626;}</style></defs><title>用户icon</title><path class="cls-1" d="M81.89,83.1C80.13,69.43,71.14,58.43,59.52,54.47a21.11,21.11,0,1,0-19.07,0c-11.6,4-20.59,15-22.34,28.63a1.91,1.91,0,1,0,3.78.49c1.92-14.94,13.45-26.3,27-26.87.35,0,.7.05,1.06.05s.71,0,1.07-.05c13.6.56,25.13,11.92,27.06,26.87A1.91,1.91,0,0,0,80,85.25l.25,0A1.91,1.91,0,0,0,81.89,83.1Zm-49-47.39A17.11,17.11,0,1,1,50,52.77,17.1,17.1,0,0,1,32.87,35.71Z"/></svg>