<svg id="图层_1" data-name="图层 1" xmlns="http://www.w3.org/2000/svg" viewBox="0 0 100 100"><defs><style>.cls-1{fill:#262626;}</style></defs><title>音量</title><path class="cls-1" d="M68.67,27.75a3.5,3.5,0,0,0-.17,7,13.86,13.86,0,0,1,0,27.72,3.5,3.5,0,0,0,.08,7h.09a20.86,20.86,0,0,0,0-41.71Z"/><path class="cls-1" d="M58.42,18.38a7,7,0,0,0-7.06.19L29.78,32.1H21.87A10.85,10.85,0,0,0,11,42.94V57.06A10.85,10.85,0,0,0,21.87,67.9h7.89L51.36,81.43A7,7,0,0,0,62,75.52v-51A7,7,0,0,0,58.42,18.38ZM33.47,62a7,7,0,0,0-3.69-1.06H21.87A3.85,3.85,0,0,1,18,57.06V42.94a3.85,3.85,0,0,1,3.84-3.84h7.91A7,7,0,0,0,33.47,38L55,24.48l.07,51Z"/></svg>