<svg id="图层_1" data-name="图层 1" xmlns="http://www.w3.org/2000/svg" viewBox="0 0 100 100"><defs><style>.cls-1,.cls-2{fill:#262626;}.cls-1{fill-rule:evenodd;}</style></defs><title>微信</title><path class="cls-1" d="M83.55,73.29c4.47-3.84,7.21-9,7.21-13.77,0-9.59-8.82-17.84-20-19.47a2,2,0,0,0,.08-.32,3.06,3.06,0,0,0,0-1.1C68.1,26.73,54.84,17.77,39.93,17.77,23,17.77,9.24,29.17,9.24,43.19c0,7.18,3.58,13.66,10.37,18.83l-2,5.63a3.14,3.14,0,0,0,1,3.47,3.3,3.3,0,0,0,2.09.74,3.34,3.34,0,0,0,1.42-.32l8.62-4.11.52.1a42.19,42.19,0,0,0,8.65,1.07,22,22,0,0,0,3.81-.29,2,2,0,0,0,1-.61C48.59,74.54,57,79.3,66.71,79.3A40.8,40.8,0,0,0,75.06,78l7.57,4a2,2,0,0,0,2.84-2.35ZM66.85,39.19l2,.27-2-.26Zm-24,25.22a17.68,17.68,0,0,1-2.95.19,39.33,39.33,0,0,1-7.92-1l-1.78-.34-8.17,3.89,2.32-6.65-1.24-.87c-6.47-4.53-9.9-10.22-9.9-16.45,0-11.81,12-21.42,26.69-21.42,13,0,24.54,7.54,26.91,17.57a2,2,0,0,0,0,.41h-.15c-13.28,0-24.09,8.87-24.09,19.77a16.43,16.43,0,0,0,.74,4.86A2,2,0,0,0,42.88,64.42ZM80,71a2,2,0,0,0-.7,2.17l.93,3.08-4-2.1a2,2,0,0,0-.93-.23,2,2,0,0,0-.46.05,41.51,41.51,0,0,1-8.16,1.33c-11.08,0-20.09-7.08-20.09-15.78s9-15.77,20.09-15.77c10.87,0,20.05,7.22,20.05,15.77C86.76,63.43,84.18,67.83,80,71Z"/><circle class="cls-2" cx="30.93" cy="35.59" r="3.5"/><circle class="cls-2" cx="50.15" cy="35.59" r="3.5"/><circle class="cls-2" cx="59.34" cy="54.56" r="3"/><circle class="cls-2" cx="74.34" cy="54.56" r="3"/></svg>